G75*
%MOIN*%
%OFA0B0*%
%FSLAX25Y25*%
%IPPOS*%
%LPD*%
%AMOC8*
5,1,8,0,0,1.08239X$1,22.5*
%
%ADD10C,0.00000*%
%ADD11C,0.01600*%
%ADD12C,0.00600*%
%ADD13C,0.00500*%
%ADD14C,0.02000*%
%ADD15R,0.42000X0.03000*%
%ADD16R,0.07500X0.02000*%
%ADD17R,0.03000X0.02000*%
%ADD18C,0.01000*%
%ADD19C,0.00400*%
D10*
X0001000Y0001000D02*
X0001000Y0292339D01*
X0841551Y0292339D01*
X0841551Y0001000D01*
X0001000Y0001000D01*
X0005921Y0012811D02*
X0005923Y0012980D01*
X0005929Y0013149D01*
X0005940Y0013318D01*
X0005954Y0013486D01*
X0005973Y0013654D01*
X0005996Y0013822D01*
X0006022Y0013989D01*
X0006053Y0014155D01*
X0006088Y0014321D01*
X0006127Y0014485D01*
X0006171Y0014649D01*
X0006218Y0014811D01*
X0006269Y0014972D01*
X0006324Y0015132D01*
X0006383Y0015291D01*
X0006445Y0015448D01*
X0006512Y0015603D01*
X0006583Y0015757D01*
X0006657Y0015909D01*
X0006735Y0016059D01*
X0006816Y0016207D01*
X0006901Y0016353D01*
X0006990Y0016497D01*
X0007082Y0016639D01*
X0007178Y0016778D01*
X0007277Y0016915D01*
X0007379Y0017050D01*
X0007485Y0017182D01*
X0007594Y0017311D01*
X0007706Y0017438D01*
X0007821Y0017562D01*
X0007939Y0017683D01*
X0008060Y0017801D01*
X0008184Y0017916D01*
X0008311Y0018028D01*
X0008440Y0018137D01*
X0008572Y0018243D01*
X0008707Y0018345D01*
X0008844Y0018444D01*
X0008983Y0018540D01*
X0009125Y0018632D01*
X0009269Y0018721D01*
X0009415Y0018806D01*
X0009563Y0018887D01*
X0009713Y0018965D01*
X0009865Y0019039D01*
X0010019Y0019110D01*
X0010174Y0019177D01*
X0010331Y0019239D01*
X0010490Y0019298D01*
X0010650Y0019353D01*
X0010811Y0019404D01*
X0010973Y0019451D01*
X0011137Y0019495D01*
X0011301Y0019534D01*
X0011467Y0019569D01*
X0011633Y0019600D01*
X0011800Y0019626D01*
X0011968Y0019649D01*
X0012136Y0019668D01*
X0012304Y0019682D01*
X0012473Y0019693D01*
X0012642Y0019699D01*
X0012811Y0019701D01*
X0012980Y0019699D01*
X0013149Y0019693D01*
X0013318Y0019682D01*
X0013486Y0019668D01*
X0013654Y0019649D01*
X0013822Y0019626D01*
X0013989Y0019600D01*
X0014155Y0019569D01*
X0014321Y0019534D01*
X0014485Y0019495D01*
X0014649Y0019451D01*
X0014811Y0019404D01*
X0014972Y0019353D01*
X0015132Y0019298D01*
X0015291Y0019239D01*
X0015448Y0019177D01*
X0015603Y0019110D01*
X0015757Y0019039D01*
X0015909Y0018965D01*
X0016059Y0018887D01*
X0016207Y0018806D01*
X0016353Y0018721D01*
X0016497Y0018632D01*
X0016639Y0018540D01*
X0016778Y0018444D01*
X0016915Y0018345D01*
X0017050Y0018243D01*
X0017182Y0018137D01*
X0017311Y0018028D01*
X0017438Y0017916D01*
X0017562Y0017801D01*
X0017683Y0017683D01*
X0017801Y0017562D01*
X0017916Y0017438D01*
X0018028Y0017311D01*
X0018137Y0017182D01*
X0018243Y0017050D01*
X0018345Y0016915D01*
X0018444Y0016778D01*
X0018540Y0016639D01*
X0018632Y0016497D01*
X0018721Y0016353D01*
X0018806Y0016207D01*
X0018887Y0016059D01*
X0018965Y0015909D01*
X0019039Y0015757D01*
X0019110Y0015603D01*
X0019177Y0015448D01*
X0019239Y0015291D01*
X0019298Y0015132D01*
X0019353Y0014972D01*
X0019404Y0014811D01*
X0019451Y0014649D01*
X0019495Y0014485D01*
X0019534Y0014321D01*
X0019569Y0014155D01*
X0019600Y0013989D01*
X0019626Y0013822D01*
X0019649Y0013654D01*
X0019668Y0013486D01*
X0019682Y0013318D01*
X0019693Y0013149D01*
X0019699Y0012980D01*
X0019701Y0012811D01*
X0019699Y0012642D01*
X0019693Y0012473D01*
X0019682Y0012304D01*
X0019668Y0012136D01*
X0019649Y0011968D01*
X0019626Y0011800D01*
X0019600Y0011633D01*
X0019569Y0011467D01*
X0019534Y0011301D01*
X0019495Y0011137D01*
X0019451Y0010973D01*
X0019404Y0010811D01*
X0019353Y0010650D01*
X0019298Y0010490D01*
X0019239Y0010331D01*
X0019177Y0010174D01*
X0019110Y0010019D01*
X0019039Y0009865D01*
X0018965Y0009713D01*
X0018887Y0009563D01*
X0018806Y0009415D01*
X0018721Y0009269D01*
X0018632Y0009125D01*
X0018540Y0008983D01*
X0018444Y0008844D01*
X0018345Y0008707D01*
X0018243Y0008572D01*
X0018137Y0008440D01*
X0018028Y0008311D01*
X0017916Y0008184D01*
X0017801Y0008060D01*
X0017683Y0007939D01*
X0017562Y0007821D01*
X0017438Y0007706D01*
X0017311Y0007594D01*
X0017182Y0007485D01*
X0017050Y0007379D01*
X0016915Y0007277D01*
X0016778Y0007178D01*
X0016639Y0007082D01*
X0016497Y0006990D01*
X0016353Y0006901D01*
X0016207Y0006816D01*
X0016059Y0006735D01*
X0015909Y0006657D01*
X0015757Y0006583D01*
X0015603Y0006512D01*
X0015448Y0006445D01*
X0015291Y0006383D01*
X0015132Y0006324D01*
X0014972Y0006269D01*
X0014811Y0006218D01*
X0014649Y0006171D01*
X0014485Y0006127D01*
X0014321Y0006088D01*
X0014155Y0006053D01*
X0013989Y0006022D01*
X0013822Y0005996D01*
X0013654Y0005973D01*
X0013486Y0005954D01*
X0013318Y0005940D01*
X0013149Y0005929D01*
X0012980Y0005923D01*
X0012811Y0005921D01*
X0012642Y0005923D01*
X0012473Y0005929D01*
X0012304Y0005940D01*
X0012136Y0005954D01*
X0011968Y0005973D01*
X0011800Y0005996D01*
X0011633Y0006022D01*
X0011467Y0006053D01*
X0011301Y0006088D01*
X0011137Y0006127D01*
X0010973Y0006171D01*
X0010811Y0006218D01*
X0010650Y0006269D01*
X0010490Y0006324D01*
X0010331Y0006383D01*
X0010174Y0006445D01*
X0010019Y0006512D01*
X0009865Y0006583D01*
X0009713Y0006657D01*
X0009563Y0006735D01*
X0009415Y0006816D01*
X0009269Y0006901D01*
X0009125Y0006990D01*
X0008983Y0007082D01*
X0008844Y0007178D01*
X0008707Y0007277D01*
X0008572Y0007379D01*
X0008440Y0007485D01*
X0008311Y0007594D01*
X0008184Y0007706D01*
X0008060Y0007821D01*
X0007939Y0007939D01*
X0007821Y0008060D01*
X0007706Y0008184D01*
X0007594Y0008311D01*
X0007485Y0008440D01*
X0007379Y0008572D01*
X0007277Y0008707D01*
X0007178Y0008844D01*
X0007082Y0008983D01*
X0006990Y0009125D01*
X0006901Y0009269D01*
X0006816Y0009415D01*
X0006735Y0009563D01*
X0006657Y0009713D01*
X0006583Y0009865D01*
X0006512Y0010019D01*
X0006445Y0010174D01*
X0006383Y0010331D01*
X0006324Y0010490D01*
X0006269Y0010650D01*
X0006218Y0010811D01*
X0006171Y0010973D01*
X0006127Y0011137D01*
X0006088Y0011301D01*
X0006053Y0011467D01*
X0006022Y0011633D01*
X0005996Y0011800D01*
X0005973Y0011968D01*
X0005954Y0012136D01*
X0005940Y0012304D01*
X0005929Y0012473D01*
X0005923Y0012642D01*
X0005921Y0012811D01*
X0005921Y0280528D02*
X0005923Y0280697D01*
X0005929Y0280866D01*
X0005940Y0281035D01*
X0005954Y0281203D01*
X0005973Y0281371D01*
X0005996Y0281539D01*
X0006022Y0281706D01*
X0006053Y0281872D01*
X0006088Y0282038D01*
X0006127Y0282202D01*
X0006171Y0282366D01*
X0006218Y0282528D01*
X0006269Y0282689D01*
X0006324Y0282849D01*
X0006383Y0283008D01*
X0006445Y0283165D01*
X0006512Y0283320D01*
X0006583Y0283474D01*
X0006657Y0283626D01*
X0006735Y0283776D01*
X0006816Y0283924D01*
X0006901Y0284070D01*
X0006990Y0284214D01*
X0007082Y0284356D01*
X0007178Y0284495D01*
X0007277Y0284632D01*
X0007379Y0284767D01*
X0007485Y0284899D01*
X0007594Y0285028D01*
X0007706Y0285155D01*
X0007821Y0285279D01*
X0007939Y0285400D01*
X0008060Y0285518D01*
X0008184Y0285633D01*
X0008311Y0285745D01*
X0008440Y0285854D01*
X0008572Y0285960D01*
X0008707Y0286062D01*
X0008844Y0286161D01*
X0008983Y0286257D01*
X0009125Y0286349D01*
X0009269Y0286438D01*
X0009415Y0286523D01*
X0009563Y0286604D01*
X0009713Y0286682D01*
X0009865Y0286756D01*
X0010019Y0286827D01*
X0010174Y0286894D01*
X0010331Y0286956D01*
X0010490Y0287015D01*
X0010650Y0287070D01*
X0010811Y0287121D01*
X0010973Y0287168D01*
X0011137Y0287212D01*
X0011301Y0287251D01*
X0011467Y0287286D01*
X0011633Y0287317D01*
X0011800Y0287343D01*
X0011968Y0287366D01*
X0012136Y0287385D01*
X0012304Y0287399D01*
X0012473Y0287410D01*
X0012642Y0287416D01*
X0012811Y0287418D01*
X0012980Y0287416D01*
X0013149Y0287410D01*
X0013318Y0287399D01*
X0013486Y0287385D01*
X0013654Y0287366D01*
X0013822Y0287343D01*
X0013989Y0287317D01*
X0014155Y0287286D01*
X0014321Y0287251D01*
X0014485Y0287212D01*
X0014649Y0287168D01*
X0014811Y0287121D01*
X0014972Y0287070D01*
X0015132Y0287015D01*
X0015291Y0286956D01*
X0015448Y0286894D01*
X0015603Y0286827D01*
X0015757Y0286756D01*
X0015909Y0286682D01*
X0016059Y0286604D01*
X0016207Y0286523D01*
X0016353Y0286438D01*
X0016497Y0286349D01*
X0016639Y0286257D01*
X0016778Y0286161D01*
X0016915Y0286062D01*
X0017050Y0285960D01*
X0017182Y0285854D01*
X0017311Y0285745D01*
X0017438Y0285633D01*
X0017562Y0285518D01*
X0017683Y0285400D01*
X0017801Y0285279D01*
X0017916Y0285155D01*
X0018028Y0285028D01*
X0018137Y0284899D01*
X0018243Y0284767D01*
X0018345Y0284632D01*
X0018444Y0284495D01*
X0018540Y0284356D01*
X0018632Y0284214D01*
X0018721Y0284070D01*
X0018806Y0283924D01*
X0018887Y0283776D01*
X0018965Y0283626D01*
X0019039Y0283474D01*
X0019110Y0283320D01*
X0019177Y0283165D01*
X0019239Y0283008D01*
X0019298Y0282849D01*
X0019353Y0282689D01*
X0019404Y0282528D01*
X0019451Y0282366D01*
X0019495Y0282202D01*
X0019534Y0282038D01*
X0019569Y0281872D01*
X0019600Y0281706D01*
X0019626Y0281539D01*
X0019649Y0281371D01*
X0019668Y0281203D01*
X0019682Y0281035D01*
X0019693Y0280866D01*
X0019699Y0280697D01*
X0019701Y0280528D01*
X0019699Y0280359D01*
X0019693Y0280190D01*
X0019682Y0280021D01*
X0019668Y0279853D01*
X0019649Y0279685D01*
X0019626Y0279517D01*
X0019600Y0279350D01*
X0019569Y0279184D01*
X0019534Y0279018D01*
X0019495Y0278854D01*
X0019451Y0278690D01*
X0019404Y0278528D01*
X0019353Y0278367D01*
X0019298Y0278207D01*
X0019239Y0278048D01*
X0019177Y0277891D01*
X0019110Y0277736D01*
X0019039Y0277582D01*
X0018965Y0277430D01*
X0018887Y0277280D01*
X0018806Y0277132D01*
X0018721Y0276986D01*
X0018632Y0276842D01*
X0018540Y0276700D01*
X0018444Y0276561D01*
X0018345Y0276424D01*
X0018243Y0276289D01*
X0018137Y0276157D01*
X0018028Y0276028D01*
X0017916Y0275901D01*
X0017801Y0275777D01*
X0017683Y0275656D01*
X0017562Y0275538D01*
X0017438Y0275423D01*
X0017311Y0275311D01*
X0017182Y0275202D01*
X0017050Y0275096D01*
X0016915Y0274994D01*
X0016778Y0274895D01*
X0016639Y0274799D01*
X0016497Y0274707D01*
X0016353Y0274618D01*
X0016207Y0274533D01*
X0016059Y0274452D01*
X0015909Y0274374D01*
X0015757Y0274300D01*
X0015603Y0274229D01*
X0015448Y0274162D01*
X0015291Y0274100D01*
X0015132Y0274041D01*
X0014972Y0273986D01*
X0014811Y0273935D01*
X0014649Y0273888D01*
X0014485Y0273844D01*
X0014321Y0273805D01*
X0014155Y0273770D01*
X0013989Y0273739D01*
X0013822Y0273713D01*
X0013654Y0273690D01*
X0013486Y0273671D01*
X0013318Y0273657D01*
X0013149Y0273646D01*
X0012980Y0273640D01*
X0012811Y0273638D01*
X0012642Y0273640D01*
X0012473Y0273646D01*
X0012304Y0273657D01*
X0012136Y0273671D01*
X0011968Y0273690D01*
X0011800Y0273713D01*
X0011633Y0273739D01*
X0011467Y0273770D01*
X0011301Y0273805D01*
X0011137Y0273844D01*
X0010973Y0273888D01*
X0010811Y0273935D01*
X0010650Y0273986D01*
X0010490Y0274041D01*
X0010331Y0274100D01*
X0010174Y0274162D01*
X0010019Y0274229D01*
X0009865Y0274300D01*
X0009713Y0274374D01*
X0009563Y0274452D01*
X0009415Y0274533D01*
X0009269Y0274618D01*
X0009125Y0274707D01*
X0008983Y0274799D01*
X0008844Y0274895D01*
X0008707Y0274994D01*
X0008572Y0275096D01*
X0008440Y0275202D01*
X0008311Y0275311D01*
X0008184Y0275423D01*
X0008060Y0275538D01*
X0007939Y0275656D01*
X0007821Y0275777D01*
X0007706Y0275901D01*
X0007594Y0276028D01*
X0007485Y0276157D01*
X0007379Y0276289D01*
X0007277Y0276424D01*
X0007178Y0276561D01*
X0007082Y0276700D01*
X0006990Y0276842D01*
X0006901Y0276986D01*
X0006816Y0277132D01*
X0006735Y0277280D01*
X0006657Y0277430D01*
X0006583Y0277582D01*
X0006512Y0277736D01*
X0006445Y0277891D01*
X0006383Y0278048D01*
X0006324Y0278207D01*
X0006269Y0278367D01*
X0006218Y0278528D01*
X0006171Y0278690D01*
X0006127Y0278854D01*
X0006088Y0279018D01*
X0006053Y0279184D01*
X0006022Y0279350D01*
X0005996Y0279517D01*
X0005973Y0279685D01*
X0005954Y0279853D01*
X0005940Y0280021D01*
X0005929Y0280190D01*
X0005923Y0280359D01*
X0005921Y0280528D01*
X0822850Y0280528D02*
X0822852Y0280697D01*
X0822858Y0280866D01*
X0822869Y0281035D01*
X0822883Y0281203D01*
X0822902Y0281371D01*
X0822925Y0281539D01*
X0822951Y0281706D01*
X0822982Y0281872D01*
X0823017Y0282038D01*
X0823056Y0282202D01*
X0823100Y0282366D01*
X0823147Y0282528D01*
X0823198Y0282689D01*
X0823253Y0282849D01*
X0823312Y0283008D01*
X0823374Y0283165D01*
X0823441Y0283320D01*
X0823512Y0283474D01*
X0823586Y0283626D01*
X0823664Y0283776D01*
X0823745Y0283924D01*
X0823830Y0284070D01*
X0823919Y0284214D01*
X0824011Y0284356D01*
X0824107Y0284495D01*
X0824206Y0284632D01*
X0824308Y0284767D01*
X0824414Y0284899D01*
X0824523Y0285028D01*
X0824635Y0285155D01*
X0824750Y0285279D01*
X0824868Y0285400D01*
X0824989Y0285518D01*
X0825113Y0285633D01*
X0825240Y0285745D01*
X0825369Y0285854D01*
X0825501Y0285960D01*
X0825636Y0286062D01*
X0825773Y0286161D01*
X0825912Y0286257D01*
X0826054Y0286349D01*
X0826198Y0286438D01*
X0826344Y0286523D01*
X0826492Y0286604D01*
X0826642Y0286682D01*
X0826794Y0286756D01*
X0826948Y0286827D01*
X0827103Y0286894D01*
X0827260Y0286956D01*
X0827419Y0287015D01*
X0827579Y0287070D01*
X0827740Y0287121D01*
X0827902Y0287168D01*
X0828066Y0287212D01*
X0828230Y0287251D01*
X0828396Y0287286D01*
X0828562Y0287317D01*
X0828729Y0287343D01*
X0828897Y0287366D01*
X0829065Y0287385D01*
X0829233Y0287399D01*
X0829402Y0287410D01*
X0829571Y0287416D01*
X0829740Y0287418D01*
X0829909Y0287416D01*
X0830078Y0287410D01*
X0830247Y0287399D01*
X0830415Y0287385D01*
X0830583Y0287366D01*
X0830751Y0287343D01*
X0830918Y0287317D01*
X0831084Y0287286D01*
X0831250Y0287251D01*
X0831414Y0287212D01*
X0831578Y0287168D01*
X0831740Y0287121D01*
X0831901Y0287070D01*
X0832061Y0287015D01*
X0832220Y0286956D01*
X0832377Y0286894D01*
X0832532Y0286827D01*
X0832686Y0286756D01*
X0832838Y0286682D01*
X0832988Y0286604D01*
X0833136Y0286523D01*
X0833282Y0286438D01*
X0833426Y0286349D01*
X0833568Y0286257D01*
X0833707Y0286161D01*
X0833844Y0286062D01*
X0833979Y0285960D01*
X0834111Y0285854D01*
X0834240Y0285745D01*
X0834367Y0285633D01*
X0834491Y0285518D01*
X0834612Y0285400D01*
X0834730Y0285279D01*
X0834845Y0285155D01*
X0834957Y0285028D01*
X0835066Y0284899D01*
X0835172Y0284767D01*
X0835274Y0284632D01*
X0835373Y0284495D01*
X0835469Y0284356D01*
X0835561Y0284214D01*
X0835650Y0284070D01*
X0835735Y0283924D01*
X0835816Y0283776D01*
X0835894Y0283626D01*
X0835968Y0283474D01*
X0836039Y0283320D01*
X0836106Y0283165D01*
X0836168Y0283008D01*
X0836227Y0282849D01*
X0836282Y0282689D01*
X0836333Y0282528D01*
X0836380Y0282366D01*
X0836424Y0282202D01*
X0836463Y0282038D01*
X0836498Y0281872D01*
X0836529Y0281706D01*
X0836555Y0281539D01*
X0836578Y0281371D01*
X0836597Y0281203D01*
X0836611Y0281035D01*
X0836622Y0280866D01*
X0836628Y0280697D01*
X0836630Y0280528D01*
X0836628Y0280359D01*
X0836622Y0280190D01*
X0836611Y0280021D01*
X0836597Y0279853D01*
X0836578Y0279685D01*
X0836555Y0279517D01*
X0836529Y0279350D01*
X0836498Y0279184D01*
X0836463Y0279018D01*
X0836424Y0278854D01*
X0836380Y0278690D01*
X0836333Y0278528D01*
X0836282Y0278367D01*
X0836227Y0278207D01*
X0836168Y0278048D01*
X0836106Y0277891D01*
X0836039Y0277736D01*
X0835968Y0277582D01*
X0835894Y0277430D01*
X0835816Y0277280D01*
X0835735Y0277132D01*
X0835650Y0276986D01*
X0835561Y0276842D01*
X0835469Y0276700D01*
X0835373Y0276561D01*
X0835274Y0276424D01*
X0835172Y0276289D01*
X0835066Y0276157D01*
X0834957Y0276028D01*
X0834845Y0275901D01*
X0834730Y0275777D01*
X0834612Y0275656D01*
X0834491Y0275538D01*
X0834367Y0275423D01*
X0834240Y0275311D01*
X0834111Y0275202D01*
X0833979Y0275096D01*
X0833844Y0274994D01*
X0833707Y0274895D01*
X0833568Y0274799D01*
X0833426Y0274707D01*
X0833282Y0274618D01*
X0833136Y0274533D01*
X0832988Y0274452D01*
X0832838Y0274374D01*
X0832686Y0274300D01*
X0832532Y0274229D01*
X0832377Y0274162D01*
X0832220Y0274100D01*
X0832061Y0274041D01*
X0831901Y0273986D01*
X0831740Y0273935D01*
X0831578Y0273888D01*
X0831414Y0273844D01*
X0831250Y0273805D01*
X0831084Y0273770D01*
X0830918Y0273739D01*
X0830751Y0273713D01*
X0830583Y0273690D01*
X0830415Y0273671D01*
X0830247Y0273657D01*
X0830078Y0273646D01*
X0829909Y0273640D01*
X0829740Y0273638D01*
X0829571Y0273640D01*
X0829402Y0273646D01*
X0829233Y0273657D01*
X0829065Y0273671D01*
X0828897Y0273690D01*
X0828729Y0273713D01*
X0828562Y0273739D01*
X0828396Y0273770D01*
X0828230Y0273805D01*
X0828066Y0273844D01*
X0827902Y0273888D01*
X0827740Y0273935D01*
X0827579Y0273986D01*
X0827419Y0274041D01*
X0827260Y0274100D01*
X0827103Y0274162D01*
X0826948Y0274229D01*
X0826794Y0274300D01*
X0826642Y0274374D01*
X0826492Y0274452D01*
X0826344Y0274533D01*
X0826198Y0274618D01*
X0826054Y0274707D01*
X0825912Y0274799D01*
X0825773Y0274895D01*
X0825636Y0274994D01*
X0825501Y0275096D01*
X0825369Y0275202D01*
X0825240Y0275311D01*
X0825113Y0275423D01*
X0824989Y0275538D01*
X0824868Y0275656D01*
X0824750Y0275777D01*
X0824635Y0275901D01*
X0824523Y0276028D01*
X0824414Y0276157D01*
X0824308Y0276289D01*
X0824206Y0276424D01*
X0824107Y0276561D01*
X0824011Y0276700D01*
X0823919Y0276842D01*
X0823830Y0276986D01*
X0823745Y0277132D01*
X0823664Y0277280D01*
X0823586Y0277430D01*
X0823512Y0277582D01*
X0823441Y0277736D01*
X0823374Y0277891D01*
X0823312Y0278048D01*
X0823253Y0278207D01*
X0823198Y0278367D01*
X0823147Y0278528D01*
X0823100Y0278690D01*
X0823056Y0278854D01*
X0823017Y0279018D01*
X0822982Y0279184D01*
X0822951Y0279350D01*
X0822925Y0279517D01*
X0822902Y0279685D01*
X0822883Y0279853D01*
X0822869Y0280021D01*
X0822858Y0280190D01*
X0822852Y0280359D01*
X0822850Y0280528D01*
X0822850Y0012811D02*
X0822852Y0012980D01*
X0822858Y0013149D01*
X0822869Y0013318D01*
X0822883Y0013486D01*
X0822902Y0013654D01*
X0822925Y0013822D01*
X0822951Y0013989D01*
X0822982Y0014155D01*
X0823017Y0014321D01*
X0823056Y0014485D01*
X0823100Y0014649D01*
X0823147Y0014811D01*
X0823198Y0014972D01*
X0823253Y0015132D01*
X0823312Y0015291D01*
X0823374Y0015448D01*
X0823441Y0015603D01*
X0823512Y0015757D01*
X0823586Y0015909D01*
X0823664Y0016059D01*
X0823745Y0016207D01*
X0823830Y0016353D01*
X0823919Y0016497D01*
X0824011Y0016639D01*
X0824107Y0016778D01*
X0824206Y0016915D01*
X0824308Y0017050D01*
X0824414Y0017182D01*
X0824523Y0017311D01*
X0824635Y0017438D01*
X0824750Y0017562D01*
X0824868Y0017683D01*
X0824989Y0017801D01*
X0825113Y0017916D01*
X0825240Y0018028D01*
X0825369Y0018137D01*
X0825501Y0018243D01*
X0825636Y0018345D01*
X0825773Y0018444D01*
X0825912Y0018540D01*
X0826054Y0018632D01*
X0826198Y0018721D01*
X0826344Y0018806D01*
X0826492Y0018887D01*
X0826642Y0018965D01*
X0826794Y0019039D01*
X0826948Y0019110D01*
X0827103Y0019177D01*
X0827260Y0019239D01*
X0827419Y0019298D01*
X0827579Y0019353D01*
X0827740Y0019404D01*
X0827902Y0019451D01*
X0828066Y0019495D01*
X0828230Y0019534D01*
X0828396Y0019569D01*
X0828562Y0019600D01*
X0828729Y0019626D01*
X0828897Y0019649D01*
X0829065Y0019668D01*
X0829233Y0019682D01*
X0829402Y0019693D01*
X0829571Y0019699D01*
X0829740Y0019701D01*
X0829909Y0019699D01*
X0830078Y0019693D01*
X0830247Y0019682D01*
X0830415Y0019668D01*
X0830583Y0019649D01*
X0830751Y0019626D01*
X0830918Y0019600D01*
X0831084Y0019569D01*
X0831250Y0019534D01*
X0831414Y0019495D01*
X0831578Y0019451D01*
X0831740Y0019404D01*
X0831901Y0019353D01*
X0832061Y0019298D01*
X0832220Y0019239D01*
X0832377Y0019177D01*
X0832532Y0019110D01*
X0832686Y0019039D01*
X0832838Y0018965D01*
X0832988Y0018887D01*
X0833136Y0018806D01*
X0833282Y0018721D01*
X0833426Y0018632D01*
X0833568Y0018540D01*
X0833707Y0018444D01*
X0833844Y0018345D01*
X0833979Y0018243D01*
X0834111Y0018137D01*
X0834240Y0018028D01*
X0834367Y0017916D01*
X0834491Y0017801D01*
X0834612Y0017683D01*
X0834730Y0017562D01*
X0834845Y0017438D01*
X0834957Y0017311D01*
X0835066Y0017182D01*
X0835172Y0017050D01*
X0835274Y0016915D01*
X0835373Y0016778D01*
X0835469Y0016639D01*
X0835561Y0016497D01*
X0835650Y0016353D01*
X0835735Y0016207D01*
X0835816Y0016059D01*
X0835894Y0015909D01*
X0835968Y0015757D01*
X0836039Y0015603D01*
X0836106Y0015448D01*
X0836168Y0015291D01*
X0836227Y0015132D01*
X0836282Y0014972D01*
X0836333Y0014811D01*
X0836380Y0014649D01*
X0836424Y0014485D01*
X0836463Y0014321D01*
X0836498Y0014155D01*
X0836529Y0013989D01*
X0836555Y0013822D01*
X0836578Y0013654D01*
X0836597Y0013486D01*
X0836611Y0013318D01*
X0836622Y0013149D01*
X0836628Y0012980D01*
X0836630Y0012811D01*
X0836628Y0012642D01*
X0836622Y0012473D01*
X0836611Y0012304D01*
X0836597Y0012136D01*
X0836578Y0011968D01*
X0836555Y0011800D01*
X0836529Y0011633D01*
X0836498Y0011467D01*
X0836463Y0011301D01*
X0836424Y0011137D01*
X0836380Y0010973D01*
X0836333Y0010811D01*
X0836282Y0010650D01*
X0836227Y0010490D01*
X0836168Y0010331D01*
X0836106Y0010174D01*
X0836039Y0010019D01*
X0835968Y0009865D01*
X0835894Y0009713D01*
X0835816Y0009563D01*
X0835735Y0009415D01*
X0835650Y0009269D01*
X0835561Y0009125D01*
X0835469Y0008983D01*
X0835373Y0008844D01*
X0835274Y0008707D01*
X0835172Y0008572D01*
X0835066Y0008440D01*
X0834957Y0008311D01*
X0834845Y0008184D01*
X0834730Y0008060D01*
X0834612Y0007939D01*
X0834491Y0007821D01*
X0834367Y0007706D01*
X0834240Y0007594D01*
X0834111Y0007485D01*
X0833979Y0007379D01*
X0833844Y0007277D01*
X0833707Y0007178D01*
X0833568Y0007082D01*
X0833426Y0006990D01*
X0833282Y0006901D01*
X0833136Y0006816D01*
X0832988Y0006735D01*
X0832838Y0006657D01*
X0832686Y0006583D01*
X0832532Y0006512D01*
X0832377Y0006445D01*
X0832220Y0006383D01*
X0832061Y0006324D01*
X0831901Y0006269D01*
X0831740Y0006218D01*
X0831578Y0006171D01*
X0831414Y0006127D01*
X0831250Y0006088D01*
X0831084Y0006053D01*
X0830918Y0006022D01*
X0830751Y0005996D01*
X0830583Y0005973D01*
X0830415Y0005954D01*
X0830247Y0005940D01*
X0830078Y0005929D01*
X0829909Y0005923D01*
X0829740Y0005921D01*
X0829571Y0005923D01*
X0829402Y0005929D01*
X0829233Y0005940D01*
X0829065Y0005954D01*
X0828897Y0005973D01*
X0828729Y0005996D01*
X0828562Y0006022D01*
X0828396Y0006053D01*
X0828230Y0006088D01*
X0828066Y0006127D01*
X0827902Y0006171D01*
X0827740Y0006218D01*
X0827579Y0006269D01*
X0827419Y0006324D01*
X0827260Y0006383D01*
X0827103Y0006445D01*
X0826948Y0006512D01*
X0826794Y0006583D01*
X0826642Y0006657D01*
X0826492Y0006735D01*
X0826344Y0006816D01*
X0826198Y0006901D01*
X0826054Y0006990D01*
X0825912Y0007082D01*
X0825773Y0007178D01*
X0825636Y0007277D01*
X0825501Y0007379D01*
X0825369Y0007485D01*
X0825240Y0007594D01*
X0825113Y0007706D01*
X0824989Y0007821D01*
X0824868Y0007939D01*
X0824750Y0008060D01*
X0824635Y0008184D01*
X0824523Y0008311D01*
X0824414Y0008440D01*
X0824308Y0008572D01*
X0824206Y0008707D01*
X0824107Y0008844D01*
X0824011Y0008983D01*
X0823919Y0009125D01*
X0823830Y0009269D01*
X0823745Y0009415D01*
X0823664Y0009563D01*
X0823586Y0009713D01*
X0823512Y0009865D01*
X0823441Y0010019D01*
X0823374Y0010174D01*
X0823312Y0010331D01*
X0823253Y0010490D01*
X0823198Y0010650D01*
X0823147Y0010811D01*
X0823100Y0010973D01*
X0823056Y0011137D01*
X0823017Y0011301D01*
X0822982Y0011467D01*
X0822951Y0011633D01*
X0822925Y0011800D01*
X0822902Y0011968D01*
X0822883Y0012136D01*
X0822869Y0012304D01*
X0822858Y0012473D01*
X0822852Y0012642D01*
X0822850Y0012811D01*
D11*
X0816000Y0026000D02*
X0456000Y0026000D01*
X0456000Y0291000D01*
X0386000Y0291000D02*
X0386000Y0026000D01*
X0026000Y0026000D01*
X0026000Y0291000D01*
X0386000Y0026000D02*
X0456000Y0026000D01*
X0816000Y0026000D02*
X0816000Y0291000D01*
D12*
X0801000Y0266500D02*
X0800500Y0255000D01*
X0799500Y0254000D01*
X0762500Y0254000D01*
X0761500Y0255000D01*
X0761000Y0266500D01*
X0731000Y0266500D02*
X0730500Y0255000D01*
X0729500Y0254000D01*
X0692500Y0254000D01*
X0691500Y0255000D01*
X0691000Y0266500D01*
X0661000Y0266500D02*
X0660500Y0255000D01*
X0659500Y0254000D01*
X0622500Y0254000D01*
X0621500Y0255000D01*
X0621000Y0266500D01*
X0591000Y0266500D02*
X0590500Y0255000D01*
X0589500Y0254000D01*
X0552500Y0254000D01*
X0551500Y0255000D01*
X0551000Y0266500D01*
X0448461Y0277705D02*
X0444191Y0277705D01*
X0446326Y0277705D02*
X0446326Y0271300D01*
X0442016Y0272368D02*
X0442016Y0277705D01*
X0437745Y0277705D02*
X0437745Y0272368D01*
X0438813Y0271300D01*
X0440948Y0271300D01*
X0442016Y0272368D01*
X0435570Y0272368D02*
X0435570Y0276638D01*
X0434503Y0277705D01*
X0432368Y0277705D01*
X0431300Y0276638D01*
X0431300Y0272368D01*
X0432368Y0271300D01*
X0434503Y0271300D01*
X0435570Y0272368D01*
X0404867Y0271300D02*
X0404867Y0277705D01*
X0400597Y0277705D02*
X0404867Y0271300D01*
X0400597Y0271300D02*
X0400597Y0277705D01*
X0398435Y0277705D02*
X0396300Y0277705D01*
X0397368Y0277705D02*
X0397368Y0271300D01*
X0398435Y0271300D02*
X0396300Y0271300D01*
X0291000Y0266500D02*
X0290500Y0255000D01*
X0289500Y0254000D01*
X0252500Y0254000D01*
X0251500Y0255000D01*
X0251000Y0266500D01*
X0221000Y0266500D02*
X0220500Y0255000D01*
X0219500Y0254000D01*
X0182500Y0254000D01*
X0181500Y0255000D01*
X0181000Y0266500D01*
X0151000Y0266500D02*
X0150500Y0255000D01*
X0149500Y0254000D01*
X0112500Y0254000D01*
X0111500Y0255000D01*
X0111000Y0266500D01*
X0081000Y0266500D02*
X0080500Y0255000D01*
X0079500Y0254000D01*
X0042500Y0254000D01*
X0041500Y0255000D01*
X0041000Y0266500D01*
X0041000Y0171500D02*
X0041500Y0160000D01*
X0042500Y0159000D01*
X0079500Y0159000D01*
X0080500Y0160000D01*
X0081000Y0171500D01*
X0111000Y0171500D02*
X0111500Y0160000D01*
X0112500Y0159000D01*
X0149500Y0159000D01*
X0150500Y0160000D01*
X0151000Y0171500D01*
X0181000Y0171500D02*
X0181500Y0160000D01*
X0182500Y0159000D01*
X0219500Y0159000D01*
X0220500Y0160000D01*
X0221000Y0171500D01*
X0256000Y0171500D02*
X0256500Y0160000D01*
X0257500Y0159000D01*
X0294500Y0159000D01*
X0295500Y0160000D01*
X0296000Y0171500D01*
X0326358Y0165701D02*
X0326358Y0164902D01*
X0365657Y0164902D01*
X0365657Y0138902D01*
X0365657Y0129500D01*
X0326358Y0129500D01*
X0326358Y0138902D01*
X0326358Y0164902D01*
X0326358Y0165701D02*
X0365657Y0165701D01*
X0365657Y0164902D01*
X0353857Y0159700D02*
X0353859Y0159789D01*
X0353865Y0159878D01*
X0353875Y0159967D01*
X0353889Y0160055D01*
X0353906Y0160142D01*
X0353928Y0160228D01*
X0353954Y0160314D01*
X0353983Y0160398D01*
X0354016Y0160481D01*
X0354052Y0160562D01*
X0354093Y0160642D01*
X0354136Y0160719D01*
X0354183Y0160795D01*
X0354234Y0160868D01*
X0354287Y0160939D01*
X0354344Y0161008D01*
X0354404Y0161074D01*
X0354467Y0161138D01*
X0354532Y0161198D01*
X0354600Y0161256D01*
X0354671Y0161310D01*
X0354744Y0161361D01*
X0354819Y0161409D01*
X0354896Y0161454D01*
X0354975Y0161495D01*
X0355056Y0161532D01*
X0355138Y0161566D01*
X0355222Y0161597D01*
X0355307Y0161623D01*
X0355393Y0161646D01*
X0355480Y0161664D01*
X0355568Y0161679D01*
X0355657Y0161690D01*
X0355746Y0161697D01*
X0355835Y0161700D01*
X0355924Y0161699D01*
X0356013Y0161694D01*
X0356101Y0161685D01*
X0356190Y0161672D01*
X0356277Y0161655D01*
X0356364Y0161635D01*
X0356450Y0161610D01*
X0356534Y0161582D01*
X0356617Y0161550D01*
X0356699Y0161514D01*
X0356779Y0161475D01*
X0356857Y0161432D01*
X0356933Y0161386D01*
X0357007Y0161336D01*
X0357079Y0161283D01*
X0357148Y0161227D01*
X0357215Y0161168D01*
X0357279Y0161106D01*
X0357340Y0161042D01*
X0357399Y0160974D01*
X0357454Y0160904D01*
X0357506Y0160832D01*
X0357555Y0160757D01*
X0357600Y0160681D01*
X0357642Y0160602D01*
X0357680Y0160522D01*
X0357715Y0160440D01*
X0357746Y0160356D01*
X0357774Y0160271D01*
X0357797Y0160185D01*
X0357817Y0160098D01*
X0357833Y0160011D01*
X0357845Y0159922D01*
X0357853Y0159834D01*
X0357857Y0159745D01*
X0357857Y0159655D01*
X0357853Y0159566D01*
X0357845Y0159478D01*
X0357833Y0159389D01*
X0357817Y0159302D01*
X0357797Y0159215D01*
X0357774Y0159129D01*
X0357746Y0159044D01*
X0357715Y0158960D01*
X0357680Y0158878D01*
X0357642Y0158798D01*
X0357600Y0158719D01*
X0357555Y0158643D01*
X0357506Y0158568D01*
X0357454Y0158496D01*
X0357399Y0158426D01*
X0357340Y0158358D01*
X0357279Y0158294D01*
X0357215Y0158232D01*
X0357148Y0158173D01*
X0357079Y0158117D01*
X0357007Y0158064D01*
X0356933Y0158014D01*
X0356857Y0157968D01*
X0356779Y0157925D01*
X0356699Y0157886D01*
X0356617Y0157850D01*
X0356534Y0157818D01*
X0356450Y0157790D01*
X0356364Y0157765D01*
X0356277Y0157745D01*
X0356190Y0157728D01*
X0356101Y0157715D01*
X0356013Y0157706D01*
X0355924Y0157701D01*
X0355835Y0157700D01*
X0355746Y0157703D01*
X0355657Y0157710D01*
X0355568Y0157721D01*
X0355480Y0157736D01*
X0355393Y0157754D01*
X0355307Y0157777D01*
X0355222Y0157803D01*
X0355138Y0157834D01*
X0355056Y0157868D01*
X0354975Y0157905D01*
X0354896Y0157946D01*
X0354819Y0157991D01*
X0354744Y0158039D01*
X0354671Y0158090D01*
X0354600Y0158144D01*
X0354532Y0158202D01*
X0354467Y0158262D01*
X0354404Y0158326D01*
X0354344Y0158392D01*
X0354287Y0158461D01*
X0354234Y0158532D01*
X0354183Y0158605D01*
X0354136Y0158681D01*
X0354093Y0158758D01*
X0354052Y0158838D01*
X0354016Y0158919D01*
X0353983Y0159002D01*
X0353954Y0159086D01*
X0353928Y0159172D01*
X0353906Y0159258D01*
X0353889Y0159345D01*
X0353875Y0159433D01*
X0353865Y0159522D01*
X0353859Y0159611D01*
X0353857Y0159700D01*
X0334157Y0159700D02*
X0334159Y0159789D01*
X0334165Y0159878D01*
X0334175Y0159967D01*
X0334189Y0160055D01*
X0334206Y0160142D01*
X0334228Y0160228D01*
X0334254Y0160314D01*
X0334283Y0160398D01*
X0334316Y0160481D01*
X0334352Y0160562D01*
X0334393Y0160642D01*
X0334436Y0160719D01*
X0334483Y0160795D01*
X0334534Y0160868D01*
X0334587Y0160939D01*
X0334644Y0161008D01*
X0334704Y0161074D01*
X0334767Y0161138D01*
X0334832Y0161198D01*
X0334900Y0161256D01*
X0334971Y0161310D01*
X0335044Y0161361D01*
X0335119Y0161409D01*
X0335196Y0161454D01*
X0335275Y0161495D01*
X0335356Y0161532D01*
X0335438Y0161566D01*
X0335522Y0161597D01*
X0335607Y0161623D01*
X0335693Y0161646D01*
X0335780Y0161664D01*
X0335868Y0161679D01*
X0335957Y0161690D01*
X0336046Y0161697D01*
X0336135Y0161700D01*
X0336224Y0161699D01*
X0336313Y0161694D01*
X0336401Y0161685D01*
X0336490Y0161672D01*
X0336577Y0161655D01*
X0336664Y0161635D01*
X0336750Y0161610D01*
X0336834Y0161582D01*
X0336917Y0161550D01*
X0336999Y0161514D01*
X0337079Y0161475D01*
X0337157Y0161432D01*
X0337233Y0161386D01*
X0337307Y0161336D01*
X0337379Y0161283D01*
X0337448Y0161227D01*
X0337515Y0161168D01*
X0337579Y0161106D01*
X0337640Y0161042D01*
X0337699Y0160974D01*
X0337754Y0160904D01*
X0337806Y0160832D01*
X0337855Y0160757D01*
X0337900Y0160681D01*
X0337942Y0160602D01*
X0337980Y0160522D01*
X0338015Y0160440D01*
X0338046Y0160356D01*
X0338074Y0160271D01*
X0338097Y0160185D01*
X0338117Y0160098D01*
X0338133Y0160011D01*
X0338145Y0159922D01*
X0338153Y0159834D01*
X0338157Y0159745D01*
X0338157Y0159655D01*
X0338153Y0159566D01*
X0338145Y0159478D01*
X0338133Y0159389D01*
X0338117Y0159302D01*
X0338097Y0159215D01*
X0338074Y0159129D01*
X0338046Y0159044D01*
X0338015Y0158960D01*
X0337980Y0158878D01*
X0337942Y0158798D01*
X0337900Y0158719D01*
X0337855Y0158643D01*
X0337806Y0158568D01*
X0337754Y0158496D01*
X0337699Y0158426D01*
X0337640Y0158358D01*
X0337579Y0158294D01*
X0337515Y0158232D01*
X0337448Y0158173D01*
X0337379Y0158117D01*
X0337307Y0158064D01*
X0337233Y0158014D01*
X0337157Y0157968D01*
X0337079Y0157925D01*
X0336999Y0157886D01*
X0336917Y0157850D01*
X0336834Y0157818D01*
X0336750Y0157790D01*
X0336664Y0157765D01*
X0336577Y0157745D01*
X0336490Y0157728D01*
X0336401Y0157715D01*
X0336313Y0157706D01*
X0336224Y0157701D01*
X0336135Y0157700D01*
X0336046Y0157703D01*
X0335957Y0157710D01*
X0335868Y0157721D01*
X0335780Y0157736D01*
X0335693Y0157754D01*
X0335607Y0157777D01*
X0335522Y0157803D01*
X0335438Y0157834D01*
X0335356Y0157868D01*
X0335275Y0157905D01*
X0335196Y0157946D01*
X0335119Y0157991D01*
X0335044Y0158039D01*
X0334971Y0158090D01*
X0334900Y0158144D01*
X0334832Y0158202D01*
X0334767Y0158262D01*
X0334704Y0158326D01*
X0334644Y0158392D01*
X0334587Y0158461D01*
X0334534Y0158532D01*
X0334483Y0158605D01*
X0334436Y0158681D01*
X0334393Y0158758D01*
X0334352Y0158838D01*
X0334316Y0158919D01*
X0334283Y0159002D01*
X0334254Y0159086D01*
X0334228Y0159172D01*
X0334206Y0159258D01*
X0334189Y0159345D01*
X0334175Y0159433D01*
X0334165Y0159522D01*
X0334159Y0159611D01*
X0334157Y0159700D01*
X0384500Y0146000D02*
X0407500Y0146000D01*
X0407500Y0226000D01*
X0400000Y0226000D01*
X0399998Y0225874D01*
X0399992Y0225749D01*
X0399982Y0225624D01*
X0399968Y0225499D01*
X0399951Y0225374D01*
X0399929Y0225250D01*
X0399904Y0225127D01*
X0399874Y0225005D01*
X0399841Y0224884D01*
X0399804Y0224764D01*
X0399764Y0224645D01*
X0399719Y0224528D01*
X0399671Y0224411D01*
X0399619Y0224297D01*
X0399564Y0224184D01*
X0399505Y0224073D01*
X0399443Y0223964D01*
X0399377Y0223857D01*
X0399308Y0223752D01*
X0399236Y0223649D01*
X0399161Y0223548D01*
X0399082Y0223450D01*
X0399000Y0223355D01*
X0398916Y0223262D01*
X0398828Y0223172D01*
X0398738Y0223084D01*
X0398645Y0223000D01*
X0398550Y0222918D01*
X0398452Y0222839D01*
X0398351Y0222764D01*
X0398248Y0222692D01*
X0398143Y0222623D01*
X0398036Y0222557D01*
X0397927Y0222495D01*
X0397816Y0222436D01*
X0397703Y0222381D01*
X0397589Y0222329D01*
X0397472Y0222281D01*
X0397355Y0222236D01*
X0397236Y0222196D01*
X0397116Y0222159D01*
X0396995Y0222126D01*
X0396873Y0222096D01*
X0396750Y0222071D01*
X0396626Y0222049D01*
X0396501Y0222032D01*
X0396376Y0222018D01*
X0396251Y0222008D01*
X0396126Y0222002D01*
X0396000Y0222000D01*
X0395874Y0222002D01*
X0395749Y0222008D01*
X0395624Y0222018D01*
X0395499Y0222032D01*
X0395374Y0222049D01*
X0395250Y0222071D01*
X0395127Y0222096D01*
X0395005Y0222126D01*
X0394884Y0222159D01*
X0394764Y0222196D01*
X0394645Y0222236D01*
X0394528Y0222281D01*
X0394411Y0222329D01*
X0394297Y0222381D01*
X0394184Y0222436D01*
X0394073Y0222495D01*
X0393964Y0222557D01*
X0393857Y0222623D01*
X0393752Y0222692D01*
X0393649Y0222764D01*
X0393548Y0222839D01*
X0393450Y0222918D01*
X0393355Y0223000D01*
X0393262Y0223084D01*
X0393172Y0223172D01*
X0393084Y0223262D01*
X0393000Y0223355D01*
X0392918Y0223450D01*
X0392839Y0223548D01*
X0392764Y0223649D01*
X0392692Y0223752D01*
X0392623Y0223857D01*
X0392557Y0223964D01*
X0392495Y0224073D01*
X0392436Y0224184D01*
X0392381Y0224297D01*
X0392329Y0224411D01*
X0392281Y0224528D01*
X0392236Y0224645D01*
X0392196Y0224764D01*
X0392159Y0224884D01*
X0392126Y0225005D01*
X0392096Y0225127D01*
X0392071Y0225250D01*
X0392049Y0225374D01*
X0392032Y0225499D01*
X0392018Y0225624D01*
X0392008Y0225749D01*
X0392002Y0225874D01*
X0392000Y0226000D01*
X0384500Y0226000D01*
X0384500Y0146000D01*
X0365657Y0138902D02*
X0359358Y0138902D01*
X0352358Y0138902D02*
X0339657Y0138902D01*
X0332657Y0138902D02*
X0326358Y0138902D01*
X0336300Y0127705D02*
X0339503Y0127705D01*
X0340570Y0126638D01*
X0340570Y0124503D01*
X0339503Y0123435D01*
X0336300Y0123435D01*
X0336300Y0121300D02*
X0336300Y0127705D01*
X0342745Y0127705D02*
X0342745Y0121300D01*
X0344881Y0123435D01*
X0347016Y0121300D01*
X0347016Y0127705D01*
X0349191Y0127705D02*
X0352394Y0127705D01*
X0353461Y0126638D01*
X0353461Y0124503D01*
X0352394Y0123435D01*
X0349191Y0123435D01*
X0349191Y0121300D02*
X0349191Y0127705D01*
X0351326Y0123435D02*
X0353461Y0121300D01*
X0355636Y0121300D02*
X0359907Y0121300D01*
X0357772Y0121300D02*
X0357772Y0127705D01*
X0355636Y0125570D01*
X0381000Y0125000D02*
X0381000Y0132500D01*
X0461000Y0132500D01*
X0461000Y0109500D01*
X0381000Y0109500D01*
X0381000Y0117000D01*
X0381126Y0117002D01*
X0381251Y0117008D01*
X0381376Y0117018D01*
X0381501Y0117032D01*
X0381626Y0117049D01*
X0381750Y0117071D01*
X0381873Y0117096D01*
X0381995Y0117126D01*
X0382116Y0117159D01*
X0382236Y0117196D01*
X0382355Y0117236D01*
X0382472Y0117281D01*
X0382589Y0117329D01*
X0382703Y0117381D01*
X0382816Y0117436D01*
X0382927Y0117495D01*
X0383036Y0117557D01*
X0383143Y0117623D01*
X0383248Y0117692D01*
X0383351Y0117764D01*
X0383452Y0117839D01*
X0383550Y0117918D01*
X0383645Y0118000D01*
X0383738Y0118084D01*
X0383828Y0118172D01*
X0383916Y0118262D01*
X0384000Y0118355D01*
X0384082Y0118450D01*
X0384161Y0118548D01*
X0384236Y0118649D01*
X0384308Y0118752D01*
X0384377Y0118857D01*
X0384443Y0118964D01*
X0384505Y0119073D01*
X0384564Y0119184D01*
X0384619Y0119297D01*
X0384671Y0119411D01*
X0384719Y0119528D01*
X0384764Y0119645D01*
X0384804Y0119764D01*
X0384841Y0119884D01*
X0384874Y0120005D01*
X0384904Y0120127D01*
X0384929Y0120250D01*
X0384951Y0120374D01*
X0384968Y0120499D01*
X0384982Y0120624D01*
X0384992Y0120749D01*
X0384998Y0120874D01*
X0385000Y0121000D01*
X0384998Y0121126D01*
X0384992Y0121251D01*
X0384982Y0121376D01*
X0384968Y0121501D01*
X0384951Y0121626D01*
X0384929Y0121750D01*
X0384904Y0121873D01*
X0384874Y0121995D01*
X0384841Y0122116D01*
X0384804Y0122236D01*
X0384764Y0122355D01*
X0384719Y0122472D01*
X0384671Y0122589D01*
X0384619Y0122703D01*
X0384564Y0122816D01*
X0384505Y0122927D01*
X0384443Y0123036D01*
X0384377Y0123143D01*
X0384308Y0123248D01*
X0384236Y0123351D01*
X0384161Y0123452D01*
X0384082Y0123550D01*
X0384000Y0123645D01*
X0383916Y0123738D01*
X0383828Y0123828D01*
X0383738Y0123916D01*
X0383645Y0124000D01*
X0383550Y0124082D01*
X0383452Y0124161D01*
X0383351Y0124236D01*
X0383248Y0124308D01*
X0383143Y0124377D01*
X0383036Y0124443D01*
X0382927Y0124505D01*
X0382816Y0124564D01*
X0382703Y0124619D01*
X0382589Y0124671D01*
X0382472Y0124719D01*
X0382355Y0124764D01*
X0382236Y0124804D01*
X0382116Y0124841D01*
X0381995Y0124874D01*
X0381873Y0124904D01*
X0381750Y0124929D01*
X0381626Y0124951D01*
X0381501Y0124968D01*
X0381376Y0124982D01*
X0381251Y0124992D01*
X0381126Y0124998D01*
X0381000Y0125000D01*
X0434500Y0146000D02*
X0442000Y0146000D01*
X0442002Y0146126D01*
X0442008Y0146251D01*
X0442018Y0146376D01*
X0442032Y0146501D01*
X0442049Y0146626D01*
X0442071Y0146750D01*
X0442096Y0146873D01*
X0442126Y0146995D01*
X0442159Y0147116D01*
X0442196Y0147236D01*
X0442236Y0147355D01*
X0442281Y0147472D01*
X0442329Y0147589D01*
X0442381Y0147703D01*
X0442436Y0147816D01*
X0442495Y0147927D01*
X0442557Y0148036D01*
X0442623Y0148143D01*
X0442692Y0148248D01*
X0442764Y0148351D01*
X0442839Y0148452D01*
X0442918Y0148550D01*
X0443000Y0148645D01*
X0443084Y0148738D01*
X0443172Y0148828D01*
X0443262Y0148916D01*
X0443355Y0149000D01*
X0443450Y0149082D01*
X0443548Y0149161D01*
X0443649Y0149236D01*
X0443752Y0149308D01*
X0443857Y0149377D01*
X0443964Y0149443D01*
X0444073Y0149505D01*
X0444184Y0149564D01*
X0444297Y0149619D01*
X0444411Y0149671D01*
X0444528Y0149719D01*
X0444645Y0149764D01*
X0444764Y0149804D01*
X0444884Y0149841D01*
X0445005Y0149874D01*
X0445127Y0149904D01*
X0445250Y0149929D01*
X0445374Y0149951D01*
X0445499Y0149968D01*
X0445624Y0149982D01*
X0445749Y0149992D01*
X0445874Y0149998D01*
X0446000Y0150000D01*
X0446126Y0149998D01*
X0446251Y0149992D01*
X0446376Y0149982D01*
X0446501Y0149968D01*
X0446626Y0149951D01*
X0446750Y0149929D01*
X0446873Y0149904D01*
X0446995Y0149874D01*
X0447116Y0149841D01*
X0447236Y0149804D01*
X0447355Y0149764D01*
X0447472Y0149719D01*
X0447589Y0149671D01*
X0447703Y0149619D01*
X0447816Y0149564D01*
X0447927Y0149505D01*
X0448036Y0149443D01*
X0448143Y0149377D01*
X0448248Y0149308D01*
X0448351Y0149236D01*
X0448452Y0149161D01*
X0448550Y0149082D01*
X0448645Y0149000D01*
X0448738Y0148916D01*
X0448828Y0148828D01*
X0448916Y0148738D01*
X0449000Y0148645D01*
X0449082Y0148550D01*
X0449161Y0148452D01*
X0449236Y0148351D01*
X0449308Y0148248D01*
X0449377Y0148143D01*
X0449443Y0148036D01*
X0449505Y0147927D01*
X0449564Y0147816D01*
X0449619Y0147703D01*
X0449671Y0147589D01*
X0449719Y0147472D01*
X0449764Y0147355D01*
X0449804Y0147236D01*
X0449841Y0147116D01*
X0449874Y0146995D01*
X0449904Y0146873D01*
X0449929Y0146750D01*
X0449951Y0146626D01*
X0449968Y0146501D01*
X0449982Y0146376D01*
X0449992Y0146251D01*
X0449998Y0146126D01*
X0450000Y0146000D01*
X0457500Y0146000D01*
X0457500Y0226000D01*
X0434500Y0226000D01*
X0434500Y0146000D01*
X0481358Y0138902D02*
X0481358Y0129500D01*
X0520657Y0129500D01*
X0520657Y0138902D01*
X0520657Y0164902D01*
X0481358Y0164902D01*
X0481358Y0165701D01*
X0520657Y0165701D01*
X0520657Y0164902D01*
X0508857Y0159700D02*
X0508859Y0159789D01*
X0508865Y0159878D01*
X0508875Y0159967D01*
X0508889Y0160055D01*
X0508906Y0160142D01*
X0508928Y0160228D01*
X0508954Y0160314D01*
X0508983Y0160398D01*
X0509016Y0160481D01*
X0509052Y0160562D01*
X0509093Y0160642D01*
X0509136Y0160719D01*
X0509183Y0160795D01*
X0509234Y0160868D01*
X0509287Y0160939D01*
X0509344Y0161008D01*
X0509404Y0161074D01*
X0509467Y0161138D01*
X0509532Y0161198D01*
X0509600Y0161256D01*
X0509671Y0161310D01*
X0509744Y0161361D01*
X0509819Y0161409D01*
X0509896Y0161454D01*
X0509975Y0161495D01*
X0510056Y0161532D01*
X0510138Y0161566D01*
X0510222Y0161597D01*
X0510307Y0161623D01*
X0510393Y0161646D01*
X0510480Y0161664D01*
X0510568Y0161679D01*
X0510657Y0161690D01*
X0510746Y0161697D01*
X0510835Y0161700D01*
X0510924Y0161699D01*
X0511013Y0161694D01*
X0511101Y0161685D01*
X0511190Y0161672D01*
X0511277Y0161655D01*
X0511364Y0161635D01*
X0511450Y0161610D01*
X0511534Y0161582D01*
X0511617Y0161550D01*
X0511699Y0161514D01*
X0511779Y0161475D01*
X0511857Y0161432D01*
X0511933Y0161386D01*
X0512007Y0161336D01*
X0512079Y0161283D01*
X0512148Y0161227D01*
X0512215Y0161168D01*
X0512279Y0161106D01*
X0512340Y0161042D01*
X0512399Y0160974D01*
X0512454Y0160904D01*
X0512506Y0160832D01*
X0512555Y0160757D01*
X0512600Y0160681D01*
X0512642Y0160602D01*
X0512680Y0160522D01*
X0512715Y0160440D01*
X0512746Y0160356D01*
X0512774Y0160271D01*
X0512797Y0160185D01*
X0512817Y0160098D01*
X0512833Y0160011D01*
X0512845Y0159922D01*
X0512853Y0159834D01*
X0512857Y0159745D01*
X0512857Y0159655D01*
X0512853Y0159566D01*
X0512845Y0159478D01*
X0512833Y0159389D01*
X0512817Y0159302D01*
X0512797Y0159215D01*
X0512774Y0159129D01*
X0512746Y0159044D01*
X0512715Y0158960D01*
X0512680Y0158878D01*
X0512642Y0158798D01*
X0512600Y0158719D01*
X0512555Y0158643D01*
X0512506Y0158568D01*
X0512454Y0158496D01*
X0512399Y0158426D01*
X0512340Y0158358D01*
X0512279Y0158294D01*
X0512215Y0158232D01*
X0512148Y0158173D01*
X0512079Y0158117D01*
X0512007Y0158064D01*
X0511933Y0158014D01*
X0511857Y0157968D01*
X0511779Y0157925D01*
X0511699Y0157886D01*
X0511617Y0157850D01*
X0511534Y0157818D01*
X0511450Y0157790D01*
X0511364Y0157765D01*
X0511277Y0157745D01*
X0511190Y0157728D01*
X0511101Y0157715D01*
X0511013Y0157706D01*
X0510924Y0157701D01*
X0510835Y0157700D01*
X0510746Y0157703D01*
X0510657Y0157710D01*
X0510568Y0157721D01*
X0510480Y0157736D01*
X0510393Y0157754D01*
X0510307Y0157777D01*
X0510222Y0157803D01*
X0510138Y0157834D01*
X0510056Y0157868D01*
X0509975Y0157905D01*
X0509896Y0157946D01*
X0509819Y0157991D01*
X0509744Y0158039D01*
X0509671Y0158090D01*
X0509600Y0158144D01*
X0509532Y0158202D01*
X0509467Y0158262D01*
X0509404Y0158326D01*
X0509344Y0158392D01*
X0509287Y0158461D01*
X0509234Y0158532D01*
X0509183Y0158605D01*
X0509136Y0158681D01*
X0509093Y0158758D01*
X0509052Y0158838D01*
X0509016Y0158919D01*
X0508983Y0159002D01*
X0508954Y0159086D01*
X0508928Y0159172D01*
X0508906Y0159258D01*
X0508889Y0159345D01*
X0508875Y0159433D01*
X0508865Y0159522D01*
X0508859Y0159611D01*
X0508857Y0159700D01*
X0489157Y0159700D02*
X0489159Y0159789D01*
X0489165Y0159878D01*
X0489175Y0159967D01*
X0489189Y0160055D01*
X0489206Y0160142D01*
X0489228Y0160228D01*
X0489254Y0160314D01*
X0489283Y0160398D01*
X0489316Y0160481D01*
X0489352Y0160562D01*
X0489393Y0160642D01*
X0489436Y0160719D01*
X0489483Y0160795D01*
X0489534Y0160868D01*
X0489587Y0160939D01*
X0489644Y0161008D01*
X0489704Y0161074D01*
X0489767Y0161138D01*
X0489832Y0161198D01*
X0489900Y0161256D01*
X0489971Y0161310D01*
X0490044Y0161361D01*
X0490119Y0161409D01*
X0490196Y0161454D01*
X0490275Y0161495D01*
X0490356Y0161532D01*
X0490438Y0161566D01*
X0490522Y0161597D01*
X0490607Y0161623D01*
X0490693Y0161646D01*
X0490780Y0161664D01*
X0490868Y0161679D01*
X0490957Y0161690D01*
X0491046Y0161697D01*
X0491135Y0161700D01*
X0491224Y0161699D01*
X0491313Y0161694D01*
X0491401Y0161685D01*
X0491490Y0161672D01*
X0491577Y0161655D01*
X0491664Y0161635D01*
X0491750Y0161610D01*
X0491834Y0161582D01*
X0491917Y0161550D01*
X0491999Y0161514D01*
X0492079Y0161475D01*
X0492157Y0161432D01*
X0492233Y0161386D01*
X0492307Y0161336D01*
X0492379Y0161283D01*
X0492448Y0161227D01*
X0492515Y0161168D01*
X0492579Y0161106D01*
X0492640Y0161042D01*
X0492699Y0160974D01*
X0492754Y0160904D01*
X0492806Y0160832D01*
X0492855Y0160757D01*
X0492900Y0160681D01*
X0492942Y0160602D01*
X0492980Y0160522D01*
X0493015Y0160440D01*
X0493046Y0160356D01*
X0493074Y0160271D01*
X0493097Y0160185D01*
X0493117Y0160098D01*
X0493133Y0160011D01*
X0493145Y0159922D01*
X0493153Y0159834D01*
X0493157Y0159745D01*
X0493157Y0159655D01*
X0493153Y0159566D01*
X0493145Y0159478D01*
X0493133Y0159389D01*
X0493117Y0159302D01*
X0493097Y0159215D01*
X0493074Y0159129D01*
X0493046Y0159044D01*
X0493015Y0158960D01*
X0492980Y0158878D01*
X0492942Y0158798D01*
X0492900Y0158719D01*
X0492855Y0158643D01*
X0492806Y0158568D01*
X0492754Y0158496D01*
X0492699Y0158426D01*
X0492640Y0158358D01*
X0492579Y0158294D01*
X0492515Y0158232D01*
X0492448Y0158173D01*
X0492379Y0158117D01*
X0492307Y0158064D01*
X0492233Y0158014D01*
X0492157Y0157968D01*
X0492079Y0157925D01*
X0491999Y0157886D01*
X0491917Y0157850D01*
X0491834Y0157818D01*
X0491750Y0157790D01*
X0491664Y0157765D01*
X0491577Y0157745D01*
X0491490Y0157728D01*
X0491401Y0157715D01*
X0491313Y0157706D01*
X0491224Y0157701D01*
X0491135Y0157700D01*
X0491046Y0157703D01*
X0490957Y0157710D01*
X0490868Y0157721D01*
X0490780Y0157736D01*
X0490693Y0157754D01*
X0490607Y0157777D01*
X0490522Y0157803D01*
X0490438Y0157834D01*
X0490356Y0157868D01*
X0490275Y0157905D01*
X0490196Y0157946D01*
X0490119Y0157991D01*
X0490044Y0158039D01*
X0489971Y0158090D01*
X0489900Y0158144D01*
X0489832Y0158202D01*
X0489767Y0158262D01*
X0489704Y0158326D01*
X0489644Y0158392D01*
X0489587Y0158461D01*
X0489534Y0158532D01*
X0489483Y0158605D01*
X0489436Y0158681D01*
X0489393Y0158758D01*
X0489352Y0158838D01*
X0489316Y0158919D01*
X0489283Y0159002D01*
X0489254Y0159086D01*
X0489228Y0159172D01*
X0489206Y0159258D01*
X0489189Y0159345D01*
X0489175Y0159433D01*
X0489165Y0159522D01*
X0489159Y0159611D01*
X0489157Y0159700D01*
X0481358Y0164902D02*
X0481358Y0138902D01*
X0487657Y0138902D01*
X0494657Y0138902D02*
X0507358Y0138902D01*
X0514358Y0138902D02*
X0520657Y0138902D01*
X0513839Y0127705D02*
X0514907Y0126638D01*
X0514907Y0125570D01*
X0513839Y0124503D01*
X0514907Y0123435D01*
X0514907Y0122368D01*
X0513839Y0121300D01*
X0511704Y0121300D01*
X0510636Y0122368D01*
X0508461Y0121300D02*
X0506326Y0123435D01*
X0507394Y0123435D02*
X0504191Y0123435D01*
X0504191Y0121300D02*
X0504191Y0127705D01*
X0507394Y0127705D01*
X0508461Y0126638D01*
X0508461Y0124503D01*
X0507394Y0123435D01*
X0510636Y0126638D02*
X0511704Y0127705D01*
X0513839Y0127705D01*
X0513839Y0124503D02*
X0512772Y0124503D01*
X0502016Y0121300D02*
X0502016Y0127705D01*
X0497745Y0127705D02*
X0497745Y0121300D01*
X0499881Y0123435D01*
X0502016Y0121300D01*
X0495570Y0124503D02*
X0494503Y0123435D01*
X0491300Y0123435D01*
X0491300Y0121300D02*
X0491300Y0127705D01*
X0494503Y0127705D01*
X0495570Y0126638D01*
X0495570Y0124503D01*
X0440657Y0090701D02*
X0401358Y0090701D01*
X0401358Y0089902D01*
X0440657Y0089902D01*
X0440657Y0063902D01*
X0440657Y0054500D01*
X0401358Y0054500D01*
X0401358Y0063902D01*
X0401358Y0089902D01*
X0409157Y0084700D02*
X0409159Y0084789D01*
X0409165Y0084878D01*
X0409175Y0084967D01*
X0409189Y0085055D01*
X0409206Y0085142D01*
X0409228Y0085228D01*
X0409254Y0085314D01*
X0409283Y0085398D01*
X0409316Y0085481D01*
X0409352Y0085562D01*
X0409393Y0085642D01*
X0409436Y0085719D01*
X0409483Y0085795D01*
X0409534Y0085868D01*
X0409587Y0085939D01*
X0409644Y0086008D01*
X0409704Y0086074D01*
X0409767Y0086138D01*
X0409832Y0086198D01*
X0409900Y0086256D01*
X0409971Y0086310D01*
X0410044Y0086361D01*
X0410119Y0086409D01*
X0410196Y0086454D01*
X0410275Y0086495D01*
X0410356Y0086532D01*
X0410438Y0086566D01*
X0410522Y0086597D01*
X0410607Y0086623D01*
X0410693Y0086646D01*
X0410780Y0086664D01*
X0410868Y0086679D01*
X0410957Y0086690D01*
X0411046Y0086697D01*
X0411135Y0086700D01*
X0411224Y0086699D01*
X0411313Y0086694D01*
X0411401Y0086685D01*
X0411490Y0086672D01*
X0411577Y0086655D01*
X0411664Y0086635D01*
X0411750Y0086610D01*
X0411834Y0086582D01*
X0411917Y0086550D01*
X0411999Y0086514D01*
X0412079Y0086475D01*
X0412157Y0086432D01*
X0412233Y0086386D01*
X0412307Y0086336D01*
X0412379Y0086283D01*
X0412448Y0086227D01*
X0412515Y0086168D01*
X0412579Y0086106D01*
X0412640Y0086042D01*
X0412699Y0085974D01*
X0412754Y0085904D01*
X0412806Y0085832D01*
X0412855Y0085757D01*
X0412900Y0085681D01*
X0412942Y0085602D01*
X0412980Y0085522D01*
X0413015Y0085440D01*
X0413046Y0085356D01*
X0413074Y0085271D01*
X0413097Y0085185D01*
X0413117Y0085098D01*
X0413133Y0085011D01*
X0413145Y0084922D01*
X0413153Y0084834D01*
X0413157Y0084745D01*
X0413157Y0084655D01*
X0413153Y0084566D01*
X0413145Y0084478D01*
X0413133Y0084389D01*
X0413117Y0084302D01*
X0413097Y0084215D01*
X0413074Y0084129D01*
X0413046Y0084044D01*
X0413015Y0083960D01*
X0412980Y0083878D01*
X0412942Y0083798D01*
X0412900Y0083719D01*
X0412855Y0083643D01*
X0412806Y0083568D01*
X0412754Y0083496D01*
X0412699Y0083426D01*
X0412640Y0083358D01*
X0412579Y0083294D01*
X0412515Y0083232D01*
X0412448Y0083173D01*
X0412379Y0083117D01*
X0412307Y0083064D01*
X0412233Y0083014D01*
X0412157Y0082968D01*
X0412079Y0082925D01*
X0411999Y0082886D01*
X0411917Y0082850D01*
X0411834Y0082818D01*
X0411750Y0082790D01*
X0411664Y0082765D01*
X0411577Y0082745D01*
X0411490Y0082728D01*
X0411401Y0082715D01*
X0411313Y0082706D01*
X0411224Y0082701D01*
X0411135Y0082700D01*
X0411046Y0082703D01*
X0410957Y0082710D01*
X0410868Y0082721D01*
X0410780Y0082736D01*
X0410693Y0082754D01*
X0410607Y0082777D01*
X0410522Y0082803D01*
X0410438Y0082834D01*
X0410356Y0082868D01*
X0410275Y0082905D01*
X0410196Y0082946D01*
X0410119Y0082991D01*
X0410044Y0083039D01*
X0409971Y0083090D01*
X0409900Y0083144D01*
X0409832Y0083202D01*
X0409767Y0083262D01*
X0409704Y0083326D01*
X0409644Y0083392D01*
X0409587Y0083461D01*
X0409534Y0083532D01*
X0409483Y0083605D01*
X0409436Y0083681D01*
X0409393Y0083758D01*
X0409352Y0083838D01*
X0409316Y0083919D01*
X0409283Y0084002D01*
X0409254Y0084086D01*
X0409228Y0084172D01*
X0409206Y0084258D01*
X0409189Y0084345D01*
X0409175Y0084433D01*
X0409165Y0084522D01*
X0409159Y0084611D01*
X0409157Y0084700D01*
X0428857Y0084700D02*
X0428859Y0084789D01*
X0428865Y0084878D01*
X0428875Y0084967D01*
X0428889Y0085055D01*
X0428906Y0085142D01*
X0428928Y0085228D01*
X0428954Y0085314D01*
X0428983Y0085398D01*
X0429016Y0085481D01*
X0429052Y0085562D01*
X0429093Y0085642D01*
X0429136Y0085719D01*
X0429183Y0085795D01*
X0429234Y0085868D01*
X0429287Y0085939D01*
X0429344Y0086008D01*
X0429404Y0086074D01*
X0429467Y0086138D01*
X0429532Y0086198D01*
X0429600Y0086256D01*
X0429671Y0086310D01*
X0429744Y0086361D01*
X0429819Y0086409D01*
X0429896Y0086454D01*
X0429975Y0086495D01*
X0430056Y0086532D01*
X0430138Y0086566D01*
X0430222Y0086597D01*
X0430307Y0086623D01*
X0430393Y0086646D01*
X0430480Y0086664D01*
X0430568Y0086679D01*
X0430657Y0086690D01*
X0430746Y0086697D01*
X0430835Y0086700D01*
X0430924Y0086699D01*
X0431013Y0086694D01*
X0431101Y0086685D01*
X0431190Y0086672D01*
X0431277Y0086655D01*
X0431364Y0086635D01*
X0431450Y0086610D01*
X0431534Y0086582D01*
X0431617Y0086550D01*
X0431699Y0086514D01*
X0431779Y0086475D01*
X0431857Y0086432D01*
X0431933Y0086386D01*
X0432007Y0086336D01*
X0432079Y0086283D01*
X0432148Y0086227D01*
X0432215Y0086168D01*
X0432279Y0086106D01*
X0432340Y0086042D01*
X0432399Y0085974D01*
X0432454Y0085904D01*
X0432506Y0085832D01*
X0432555Y0085757D01*
X0432600Y0085681D01*
X0432642Y0085602D01*
X0432680Y0085522D01*
X0432715Y0085440D01*
X0432746Y0085356D01*
X0432774Y0085271D01*
X0432797Y0085185D01*
X0432817Y0085098D01*
X0432833Y0085011D01*
X0432845Y0084922D01*
X0432853Y0084834D01*
X0432857Y0084745D01*
X0432857Y0084655D01*
X0432853Y0084566D01*
X0432845Y0084478D01*
X0432833Y0084389D01*
X0432817Y0084302D01*
X0432797Y0084215D01*
X0432774Y0084129D01*
X0432746Y0084044D01*
X0432715Y0083960D01*
X0432680Y0083878D01*
X0432642Y0083798D01*
X0432600Y0083719D01*
X0432555Y0083643D01*
X0432506Y0083568D01*
X0432454Y0083496D01*
X0432399Y0083426D01*
X0432340Y0083358D01*
X0432279Y0083294D01*
X0432215Y0083232D01*
X0432148Y0083173D01*
X0432079Y0083117D01*
X0432007Y0083064D01*
X0431933Y0083014D01*
X0431857Y0082968D01*
X0431779Y0082925D01*
X0431699Y0082886D01*
X0431617Y0082850D01*
X0431534Y0082818D01*
X0431450Y0082790D01*
X0431364Y0082765D01*
X0431277Y0082745D01*
X0431190Y0082728D01*
X0431101Y0082715D01*
X0431013Y0082706D01*
X0430924Y0082701D01*
X0430835Y0082700D01*
X0430746Y0082703D01*
X0430657Y0082710D01*
X0430568Y0082721D01*
X0430480Y0082736D01*
X0430393Y0082754D01*
X0430307Y0082777D01*
X0430222Y0082803D01*
X0430138Y0082834D01*
X0430056Y0082868D01*
X0429975Y0082905D01*
X0429896Y0082946D01*
X0429819Y0082991D01*
X0429744Y0083039D01*
X0429671Y0083090D01*
X0429600Y0083144D01*
X0429532Y0083202D01*
X0429467Y0083262D01*
X0429404Y0083326D01*
X0429344Y0083392D01*
X0429287Y0083461D01*
X0429234Y0083532D01*
X0429183Y0083605D01*
X0429136Y0083681D01*
X0429093Y0083758D01*
X0429052Y0083838D01*
X0429016Y0083919D01*
X0428983Y0084002D01*
X0428954Y0084086D01*
X0428928Y0084172D01*
X0428906Y0084258D01*
X0428889Y0084345D01*
X0428875Y0084433D01*
X0428865Y0084522D01*
X0428859Y0084611D01*
X0428857Y0084700D01*
X0440657Y0089902D02*
X0440657Y0090701D01*
X0440657Y0063902D02*
X0434358Y0063902D01*
X0427358Y0063902D02*
X0414657Y0063902D01*
X0407657Y0063902D02*
X0401358Y0063902D01*
X0411300Y0052705D02*
X0414503Y0052705D01*
X0415570Y0051638D01*
X0415570Y0049503D01*
X0414503Y0048435D01*
X0411300Y0048435D01*
X0411300Y0046300D02*
X0411300Y0052705D01*
X0417745Y0052705D02*
X0417745Y0046300D01*
X0419881Y0048435D01*
X0422016Y0046300D01*
X0422016Y0052705D01*
X0424191Y0052705D02*
X0427394Y0052705D01*
X0428461Y0051638D01*
X0428461Y0049503D01*
X0427394Y0048435D01*
X0424191Y0048435D01*
X0424191Y0046300D02*
X0424191Y0052705D01*
X0426326Y0048435D02*
X0428461Y0046300D01*
X0430636Y0046300D02*
X0434907Y0050570D01*
X0434907Y0051638D01*
X0433839Y0052705D01*
X0431704Y0052705D01*
X0430636Y0051638D01*
X0430636Y0046300D02*
X0434907Y0046300D01*
X0546500Y0070000D02*
X0546000Y0081500D01*
X0546500Y0070000D02*
X0547500Y0069000D01*
X0584500Y0069000D01*
X0585500Y0070000D01*
X0586000Y0081500D01*
X0616000Y0081500D02*
X0616500Y0070000D01*
X0617500Y0069000D01*
X0654500Y0069000D01*
X0655500Y0070000D01*
X0656000Y0081500D01*
X0686000Y0081500D02*
X0686500Y0070000D01*
X0687500Y0069000D01*
X0724500Y0069000D01*
X0725500Y0070000D01*
X0726000Y0081500D01*
X0756000Y0081500D02*
X0756500Y0070000D01*
X0757500Y0069000D01*
X0794500Y0069000D01*
X0795500Y0070000D01*
X0796000Y0081500D01*
X0799500Y0164000D02*
X0762500Y0164000D01*
X0761500Y0165000D01*
X0761000Y0176500D01*
X0731000Y0176500D02*
X0730500Y0165000D01*
X0729500Y0164000D01*
X0692500Y0164000D01*
X0691500Y0165000D01*
X0691000Y0176500D01*
X0661000Y0176500D02*
X0660500Y0165000D01*
X0659500Y0164000D01*
X0622500Y0164000D01*
X0621500Y0165000D01*
X0621000Y0176500D01*
X0591000Y0176500D02*
X0590500Y0165000D01*
X0589500Y0164000D01*
X0552500Y0164000D01*
X0551500Y0165000D01*
X0551000Y0176500D01*
X0799500Y0164000D02*
X0800500Y0165000D01*
X0801000Y0176500D01*
X0296000Y0081500D02*
X0295500Y0070000D01*
X0294500Y0069000D01*
X0257500Y0069000D01*
X0256500Y0070000D01*
X0256000Y0081500D01*
X0221000Y0081500D02*
X0220500Y0070000D01*
X0219500Y0069000D01*
X0182500Y0069000D01*
X0181500Y0070000D01*
X0181000Y0081500D01*
X0151000Y0081500D02*
X0150500Y0070000D01*
X0149500Y0069000D01*
X0112500Y0069000D01*
X0111500Y0070000D01*
X0111000Y0081500D01*
X0081000Y0081500D02*
X0080500Y0070000D01*
X0079500Y0069000D01*
X0042500Y0069000D01*
X0041500Y0070000D01*
X0041000Y0081500D01*
D13*
X0042001Y0066954D02*
X0043502Y0066954D01*
X0044253Y0066203D01*
X0044253Y0063201D01*
X0043502Y0062450D01*
X0042001Y0062450D01*
X0041250Y0063201D01*
X0041250Y0066203D01*
X0042001Y0066954D01*
X0042751Y0063951D02*
X0044253Y0062450D01*
X0045854Y0063201D02*
X0046605Y0062450D01*
X0048106Y0062450D01*
X0048856Y0063201D01*
X0048856Y0066203D01*
X0048106Y0066954D01*
X0046605Y0066954D01*
X0045854Y0066203D01*
X0045854Y0065453D01*
X0046605Y0064702D01*
X0048856Y0064702D01*
X0111250Y0063201D02*
X0112001Y0062450D01*
X0113502Y0062450D01*
X0114253Y0063201D01*
X0114253Y0066203D01*
X0113502Y0066954D01*
X0112001Y0066954D01*
X0111250Y0066203D01*
X0111250Y0063201D01*
X0112751Y0063951D02*
X0114253Y0062450D01*
X0115854Y0062450D02*
X0118856Y0062450D01*
X0117355Y0062450D02*
X0117355Y0066954D01*
X0115854Y0065453D01*
X0120458Y0066203D02*
X0120458Y0063201D01*
X0123460Y0066203D01*
X0123460Y0063201D01*
X0122710Y0062450D01*
X0121208Y0062450D01*
X0120458Y0063201D01*
X0120458Y0066203D02*
X0121208Y0066954D01*
X0122710Y0066954D01*
X0123460Y0066203D01*
X0181250Y0066203D02*
X0181250Y0063201D01*
X0182001Y0062450D01*
X0183502Y0062450D01*
X0184253Y0063201D01*
X0184253Y0066203D01*
X0183502Y0066954D01*
X0182001Y0066954D01*
X0181250Y0066203D01*
X0182751Y0063951D02*
X0184253Y0062450D01*
X0185854Y0062450D02*
X0188856Y0062450D01*
X0187355Y0062450D02*
X0187355Y0066954D01*
X0185854Y0065453D01*
X0190458Y0065453D02*
X0191959Y0066954D01*
X0191959Y0062450D01*
X0190458Y0062450D02*
X0193460Y0062450D01*
X0256250Y0063201D02*
X0257001Y0062450D01*
X0258502Y0062450D01*
X0259253Y0063201D01*
X0259253Y0066203D01*
X0258502Y0066954D01*
X0257001Y0066954D01*
X0256250Y0066203D01*
X0256250Y0063201D01*
X0257751Y0063951D02*
X0259253Y0062450D01*
X0260854Y0062450D02*
X0263856Y0062450D01*
X0262355Y0062450D02*
X0262355Y0066954D01*
X0260854Y0065453D01*
X0265458Y0066203D02*
X0266208Y0066954D01*
X0267710Y0066954D01*
X0268460Y0066203D01*
X0268460Y0065453D01*
X0265458Y0062450D01*
X0268460Y0062450D01*
X0374746Y0109750D02*
X0374746Y0111251D01*
X0374746Y0110501D02*
X0379250Y0110501D01*
X0379250Y0111251D02*
X0379250Y0109750D01*
X0378499Y0112819D02*
X0379250Y0113570D01*
X0379250Y0115071D01*
X0378499Y0115822D01*
X0379250Y0117423D02*
X0376247Y0120426D01*
X0375497Y0120426D01*
X0374746Y0119675D01*
X0374746Y0118174D01*
X0375497Y0117423D01*
X0375497Y0115822D02*
X0374746Y0115071D01*
X0374746Y0113570D01*
X0375497Y0112819D01*
X0378499Y0112819D01*
X0379250Y0117423D02*
X0379250Y0120426D01*
X0338714Y0132301D02*
X0338714Y0135303D01*
X0337963Y0136054D01*
X0336462Y0136054D01*
X0335711Y0135303D01*
X0335711Y0134553D01*
X0336462Y0133802D01*
X0338714Y0133802D01*
X0338714Y0132301D02*
X0337963Y0131550D01*
X0336462Y0131550D01*
X0335711Y0132301D01*
X0334110Y0131550D02*
X0331107Y0136054D01*
X0334110Y0136054D02*
X0331107Y0131550D01*
X0331410Y0153750D02*
X0328407Y0153750D01*
X0329909Y0153750D02*
X0329909Y0158254D01*
X0328407Y0156753D01*
X0347907Y0157503D02*
X0348658Y0158254D01*
X0350159Y0158254D01*
X0350910Y0157503D01*
X0350910Y0156753D01*
X0347907Y0153750D01*
X0350910Y0153750D01*
X0263856Y0153951D02*
X0263856Y0153201D01*
X0263106Y0152450D01*
X0261605Y0152450D01*
X0260854Y0153201D01*
X0260854Y0153951D01*
X0261605Y0154702D01*
X0263106Y0154702D01*
X0263856Y0153951D01*
X0263106Y0154702D02*
X0263856Y0155453D01*
X0263856Y0156203D01*
X0263106Y0156954D01*
X0261605Y0156954D01*
X0260854Y0156203D01*
X0260854Y0155453D01*
X0261605Y0154702D01*
X0259253Y0156203D02*
X0259253Y0153201D01*
X0258502Y0152450D01*
X0257001Y0152450D01*
X0256250Y0153201D01*
X0256250Y0156203D01*
X0257001Y0156954D01*
X0258502Y0156954D01*
X0259253Y0156203D01*
X0257751Y0153951D02*
X0259253Y0152450D01*
X0188856Y0156203D02*
X0185854Y0153201D01*
X0185854Y0152450D01*
X0184253Y0152450D02*
X0182751Y0153951D01*
X0182001Y0152450D02*
X0181250Y0153201D01*
X0181250Y0156203D01*
X0182001Y0156954D01*
X0183502Y0156954D01*
X0184253Y0156203D01*
X0184253Y0153201D01*
X0183502Y0152450D01*
X0182001Y0152450D01*
X0185854Y0156954D02*
X0188856Y0156954D01*
X0188856Y0156203D01*
X0118856Y0156954D02*
X0117355Y0156203D01*
X0115854Y0154702D01*
X0118106Y0154702D01*
X0118856Y0153951D01*
X0118856Y0153201D01*
X0118106Y0152450D01*
X0116605Y0152450D01*
X0115854Y0153201D01*
X0115854Y0154702D01*
X0114253Y0156203D02*
X0114253Y0153201D01*
X0113502Y0152450D01*
X0112001Y0152450D01*
X0111250Y0153201D01*
X0111250Y0156203D01*
X0112001Y0156954D01*
X0113502Y0156954D01*
X0114253Y0156203D01*
X0112751Y0153951D02*
X0114253Y0152450D01*
X0048856Y0153201D02*
X0048106Y0152450D01*
X0046605Y0152450D01*
X0045854Y0153201D01*
X0045854Y0154702D02*
X0047355Y0155453D01*
X0048106Y0155453D01*
X0048856Y0154702D01*
X0048856Y0153201D01*
X0045854Y0154702D02*
X0045854Y0156954D01*
X0048856Y0156954D01*
X0044253Y0156203D02*
X0044253Y0153201D01*
X0043502Y0152450D01*
X0042001Y0152450D01*
X0041250Y0153201D01*
X0041250Y0156203D01*
X0042001Y0156954D01*
X0043502Y0156954D01*
X0044253Y0156203D01*
X0042751Y0153951D02*
X0044253Y0152450D01*
X0044253Y0247450D02*
X0042751Y0248951D01*
X0042001Y0247450D02*
X0043502Y0247450D01*
X0044253Y0248201D01*
X0044253Y0251203D01*
X0043502Y0251954D01*
X0042001Y0251954D01*
X0041250Y0251203D01*
X0041250Y0248201D01*
X0042001Y0247450D01*
X0045854Y0247450D02*
X0048856Y0247450D01*
X0047355Y0247450D02*
X0047355Y0251954D01*
X0045854Y0250453D01*
X0111250Y0251203D02*
X0111250Y0248201D01*
X0112001Y0247450D01*
X0113502Y0247450D01*
X0114253Y0248201D01*
X0114253Y0251203D01*
X0113502Y0251954D01*
X0112001Y0251954D01*
X0111250Y0251203D01*
X0112751Y0248951D02*
X0114253Y0247450D01*
X0115854Y0247450D02*
X0118856Y0250453D01*
X0118856Y0251203D01*
X0118106Y0251954D01*
X0116605Y0251954D01*
X0115854Y0251203D01*
X0115854Y0247450D02*
X0118856Y0247450D01*
X0181250Y0248201D02*
X0182001Y0247450D01*
X0183502Y0247450D01*
X0184253Y0248201D01*
X0184253Y0251203D01*
X0183502Y0251954D01*
X0182001Y0251954D01*
X0181250Y0251203D01*
X0181250Y0248201D01*
X0182751Y0248951D02*
X0184253Y0247450D01*
X0185854Y0248201D02*
X0186605Y0247450D01*
X0188106Y0247450D01*
X0188856Y0248201D01*
X0188856Y0248951D01*
X0188106Y0249702D01*
X0187355Y0249702D01*
X0188106Y0249702D02*
X0188856Y0250453D01*
X0188856Y0251203D01*
X0188106Y0251954D01*
X0186605Y0251954D01*
X0185854Y0251203D01*
X0251250Y0251203D02*
X0251250Y0248201D01*
X0252001Y0247450D01*
X0253502Y0247450D01*
X0254253Y0248201D01*
X0254253Y0251203D01*
X0253502Y0251954D01*
X0252001Y0251954D01*
X0251250Y0251203D01*
X0252751Y0248951D02*
X0254253Y0247450D01*
X0255854Y0249702D02*
X0258856Y0249702D01*
X0258106Y0251954D02*
X0255854Y0249702D01*
X0258106Y0247450D02*
X0258106Y0251954D01*
X0384750Y0232254D02*
X0386251Y0232254D01*
X0385501Y0232254D02*
X0385501Y0227750D01*
X0386251Y0227750D02*
X0384750Y0227750D01*
X0387819Y0228501D02*
X0387819Y0231503D01*
X0388570Y0232254D01*
X0390071Y0232254D01*
X0390822Y0231503D01*
X0392423Y0230753D02*
X0393924Y0232254D01*
X0393924Y0227750D01*
X0392423Y0227750D02*
X0395426Y0227750D01*
X0390822Y0228501D02*
X0390071Y0227750D01*
X0388570Y0227750D01*
X0387819Y0228501D01*
X0551250Y0248201D02*
X0552001Y0247450D01*
X0553502Y0247450D01*
X0554253Y0248201D01*
X0554253Y0251203D01*
X0553502Y0251954D01*
X0552001Y0251954D01*
X0551250Y0251203D01*
X0551250Y0248201D01*
X0552751Y0248951D02*
X0554253Y0247450D01*
X0555854Y0247450D02*
X0558856Y0250453D01*
X0558856Y0251203D01*
X0558106Y0251954D01*
X0556605Y0251954D01*
X0555854Y0251203D01*
X0555854Y0247450D02*
X0558856Y0247450D01*
X0560458Y0247450D02*
X0563460Y0247450D01*
X0561959Y0247450D02*
X0561959Y0251954D01*
X0560458Y0250453D01*
X0621250Y0251203D02*
X0621250Y0248201D01*
X0622001Y0247450D01*
X0623502Y0247450D01*
X0624253Y0248201D01*
X0624253Y0251203D01*
X0623502Y0251954D01*
X0622001Y0251954D01*
X0621250Y0251203D01*
X0622751Y0248951D02*
X0624253Y0247450D01*
X0625854Y0247450D02*
X0628856Y0250453D01*
X0628856Y0251203D01*
X0628106Y0251954D01*
X0626605Y0251954D01*
X0625854Y0251203D01*
X0625854Y0247450D02*
X0628856Y0247450D01*
X0630458Y0247450D02*
X0633460Y0250453D01*
X0633460Y0251203D01*
X0632710Y0251954D01*
X0631208Y0251954D01*
X0630458Y0251203D01*
X0630458Y0247450D02*
X0633460Y0247450D01*
X0691250Y0248201D02*
X0692001Y0247450D01*
X0693502Y0247450D01*
X0694253Y0248201D01*
X0694253Y0251203D01*
X0693502Y0251954D01*
X0692001Y0251954D01*
X0691250Y0251203D01*
X0691250Y0248201D01*
X0692751Y0248951D02*
X0694253Y0247450D01*
X0695854Y0247450D02*
X0698856Y0250453D01*
X0698856Y0251203D01*
X0698106Y0251954D01*
X0696605Y0251954D01*
X0695854Y0251203D01*
X0695854Y0247450D02*
X0698856Y0247450D01*
X0700458Y0248201D02*
X0701208Y0247450D01*
X0702710Y0247450D01*
X0703460Y0248201D01*
X0703460Y0248951D01*
X0702710Y0249702D01*
X0701959Y0249702D01*
X0702710Y0249702D02*
X0703460Y0250453D01*
X0703460Y0251203D01*
X0702710Y0251954D01*
X0701208Y0251954D01*
X0700458Y0251203D01*
X0761250Y0251203D02*
X0761250Y0248201D01*
X0762001Y0247450D01*
X0763502Y0247450D01*
X0764253Y0248201D01*
X0764253Y0251203D01*
X0763502Y0251954D01*
X0762001Y0251954D01*
X0761250Y0251203D01*
X0762751Y0248951D02*
X0764253Y0247450D01*
X0765854Y0247450D02*
X0768856Y0250453D01*
X0768856Y0251203D01*
X0768106Y0251954D01*
X0766605Y0251954D01*
X0765854Y0251203D01*
X0765854Y0247450D02*
X0768856Y0247450D01*
X0770458Y0249702D02*
X0773460Y0249702D01*
X0772710Y0251954D02*
X0770458Y0249702D01*
X0772710Y0247450D02*
X0772710Y0251954D01*
X0772710Y0161954D02*
X0773460Y0161203D01*
X0770458Y0158201D01*
X0771208Y0157450D01*
X0772710Y0157450D01*
X0773460Y0158201D01*
X0773460Y0161203D01*
X0772710Y0161954D02*
X0771208Y0161954D01*
X0770458Y0161203D01*
X0770458Y0158201D01*
X0768856Y0157450D02*
X0765854Y0157450D01*
X0768856Y0160453D01*
X0768856Y0161203D01*
X0768106Y0161954D01*
X0766605Y0161954D01*
X0765854Y0161203D01*
X0764253Y0161203D02*
X0764253Y0158201D01*
X0763502Y0157450D01*
X0762001Y0157450D01*
X0761250Y0158201D01*
X0761250Y0161203D01*
X0762001Y0161954D01*
X0763502Y0161954D01*
X0764253Y0161203D01*
X0762751Y0158951D02*
X0764253Y0157450D01*
X0703460Y0158201D02*
X0703460Y0161203D01*
X0702710Y0161954D01*
X0701208Y0161954D01*
X0700458Y0161203D01*
X0700458Y0160453D01*
X0701208Y0159702D01*
X0703460Y0159702D01*
X0703460Y0158201D02*
X0702710Y0157450D01*
X0701208Y0157450D01*
X0700458Y0158201D01*
X0698856Y0157450D02*
X0695854Y0157450D01*
X0697355Y0157450D02*
X0697355Y0161954D01*
X0695854Y0160453D01*
X0694253Y0161203D02*
X0694253Y0158201D01*
X0693502Y0157450D01*
X0692001Y0157450D01*
X0691250Y0158201D01*
X0691250Y0161203D01*
X0692001Y0161954D01*
X0693502Y0161954D01*
X0694253Y0161203D01*
X0692751Y0158951D02*
X0694253Y0157450D01*
X0633460Y0158201D02*
X0632710Y0157450D01*
X0631208Y0157450D01*
X0630458Y0158201D01*
X0630458Y0158951D01*
X0631208Y0159702D01*
X0632710Y0159702D01*
X0633460Y0158951D01*
X0633460Y0158201D01*
X0632710Y0159702D02*
X0633460Y0160453D01*
X0633460Y0161203D01*
X0632710Y0161954D01*
X0631208Y0161954D01*
X0630458Y0161203D01*
X0630458Y0160453D01*
X0631208Y0159702D01*
X0628856Y0157450D02*
X0625854Y0157450D01*
X0627355Y0157450D02*
X0627355Y0161954D01*
X0625854Y0160453D01*
X0624253Y0161203D02*
X0624253Y0158201D01*
X0623502Y0157450D01*
X0622001Y0157450D01*
X0621250Y0158201D01*
X0621250Y0161203D01*
X0622001Y0161954D01*
X0623502Y0161954D01*
X0624253Y0161203D01*
X0622751Y0158951D02*
X0624253Y0157450D01*
X0563460Y0161203D02*
X0560458Y0158201D01*
X0560458Y0157450D01*
X0558856Y0157450D02*
X0555854Y0157450D01*
X0557355Y0157450D02*
X0557355Y0161954D01*
X0555854Y0160453D01*
X0554253Y0161203D02*
X0554253Y0158201D01*
X0553502Y0157450D01*
X0552001Y0157450D01*
X0551250Y0158201D01*
X0551250Y0161203D01*
X0552001Y0161954D01*
X0553502Y0161954D01*
X0554253Y0161203D01*
X0552751Y0158951D02*
X0554253Y0157450D01*
X0563460Y0161203D02*
X0563460Y0161954D01*
X0560458Y0161954D01*
X0505910Y0157503D02*
X0505159Y0158254D01*
X0503658Y0158254D01*
X0502907Y0157503D01*
X0505910Y0157503D02*
X0505910Y0156753D01*
X0502907Y0153750D01*
X0505910Y0153750D01*
X0486410Y0153750D02*
X0483407Y0153750D01*
X0484909Y0153750D02*
X0484909Y0158254D01*
X0483407Y0156753D01*
X0456149Y0143503D02*
X0455398Y0144254D01*
X0453897Y0144254D01*
X0453146Y0143503D01*
X0451545Y0143503D02*
X0450794Y0144254D01*
X0449293Y0144254D01*
X0448542Y0143503D01*
X0448542Y0140501D01*
X0449293Y0139750D01*
X0450794Y0139750D01*
X0451545Y0140501D01*
X0453146Y0140501D02*
X0453897Y0139750D01*
X0455398Y0139750D01*
X0456149Y0140501D01*
X0456149Y0141251D01*
X0455398Y0142002D01*
X0454647Y0142002D01*
X0455398Y0142002D02*
X0456149Y0142753D01*
X0456149Y0143503D01*
X0446974Y0144254D02*
X0445473Y0144254D01*
X0446223Y0144254D02*
X0446223Y0139750D01*
X0445473Y0139750D02*
X0446974Y0139750D01*
X0486107Y0136054D02*
X0489110Y0131550D01*
X0490711Y0131550D02*
X0493714Y0134553D01*
X0493714Y0135303D01*
X0492963Y0136054D01*
X0491462Y0136054D01*
X0490711Y0135303D01*
X0489110Y0136054D02*
X0486107Y0131550D01*
X0490711Y0131550D02*
X0493714Y0131550D01*
X0495315Y0131550D02*
X0495315Y0132301D01*
X0498318Y0135303D01*
X0498318Y0136054D01*
X0495315Y0136054D01*
X0425910Y0082503D02*
X0425159Y0083254D01*
X0423658Y0083254D01*
X0422907Y0082503D01*
X0425910Y0082503D02*
X0425910Y0081753D01*
X0422907Y0078750D01*
X0425910Y0078750D01*
X0406410Y0078750D02*
X0403407Y0078750D01*
X0404909Y0078750D02*
X0404909Y0083254D01*
X0403407Y0081753D01*
X0406107Y0061054D02*
X0409110Y0056550D01*
X0410711Y0056550D02*
X0413714Y0056550D01*
X0412213Y0056550D02*
X0412213Y0061054D01*
X0410711Y0059553D01*
X0409110Y0061054D02*
X0406107Y0056550D01*
X0415315Y0057301D02*
X0415315Y0058051D01*
X0416066Y0058802D01*
X0417567Y0058802D01*
X0418318Y0058051D01*
X0418318Y0057301D01*
X0417567Y0056550D01*
X0416066Y0056550D01*
X0415315Y0057301D01*
X0416066Y0058802D02*
X0415315Y0059553D01*
X0415315Y0060303D01*
X0416066Y0061054D01*
X0417567Y0061054D01*
X0418318Y0060303D01*
X0418318Y0059553D01*
X0417567Y0058802D01*
X0546250Y0063201D02*
X0547001Y0062450D01*
X0548502Y0062450D01*
X0549253Y0063201D01*
X0549253Y0066203D01*
X0548502Y0066954D01*
X0547001Y0066954D01*
X0546250Y0066203D01*
X0546250Y0063201D01*
X0547751Y0063951D02*
X0549253Y0062450D01*
X0550854Y0062450D02*
X0553856Y0062450D01*
X0552355Y0062450D02*
X0552355Y0066954D01*
X0550854Y0065453D01*
X0555458Y0066203D02*
X0556208Y0066954D01*
X0557710Y0066954D01*
X0558460Y0066203D01*
X0558460Y0065453D01*
X0557710Y0064702D01*
X0558460Y0063951D01*
X0558460Y0063201D01*
X0557710Y0062450D01*
X0556208Y0062450D01*
X0555458Y0063201D01*
X0556959Y0064702D02*
X0557710Y0064702D01*
X0616250Y0063201D02*
X0617001Y0062450D01*
X0618502Y0062450D01*
X0619253Y0063201D01*
X0619253Y0066203D01*
X0618502Y0066954D01*
X0617001Y0066954D01*
X0616250Y0066203D01*
X0616250Y0063201D01*
X0617751Y0063951D02*
X0619253Y0062450D01*
X0620854Y0062450D02*
X0623856Y0062450D01*
X0622355Y0062450D02*
X0622355Y0066954D01*
X0620854Y0065453D01*
X0625458Y0064702D02*
X0628460Y0064702D01*
X0627710Y0066954D02*
X0625458Y0064702D01*
X0627710Y0062450D02*
X0627710Y0066954D01*
X0686250Y0066203D02*
X0686250Y0063201D01*
X0687001Y0062450D01*
X0688502Y0062450D01*
X0689253Y0063201D01*
X0689253Y0066203D01*
X0688502Y0066954D01*
X0687001Y0066954D01*
X0686250Y0066203D01*
X0687751Y0063951D02*
X0689253Y0062450D01*
X0690854Y0062450D02*
X0693856Y0062450D01*
X0692355Y0062450D02*
X0692355Y0066954D01*
X0690854Y0065453D01*
X0695458Y0064702D02*
X0696959Y0065453D01*
X0697710Y0065453D01*
X0698460Y0064702D01*
X0698460Y0063201D01*
X0697710Y0062450D01*
X0696208Y0062450D01*
X0695458Y0063201D01*
X0695458Y0064702D02*
X0695458Y0066954D01*
X0698460Y0066954D01*
X0756250Y0066203D02*
X0756250Y0063201D01*
X0757001Y0062450D01*
X0758502Y0062450D01*
X0759253Y0063201D01*
X0759253Y0066203D01*
X0758502Y0066954D01*
X0757001Y0066954D01*
X0756250Y0066203D01*
X0757751Y0063951D02*
X0759253Y0062450D01*
X0760854Y0062450D02*
X0763856Y0062450D01*
X0762355Y0062450D02*
X0762355Y0066954D01*
X0760854Y0065453D01*
X0765458Y0064702D02*
X0767710Y0064702D01*
X0768460Y0063951D01*
X0768460Y0063201D01*
X0767710Y0062450D01*
X0766208Y0062450D01*
X0765458Y0063201D01*
X0765458Y0064702D01*
X0766959Y0066203D01*
X0768460Y0066954D01*
D14*
X0758300Y0071400D03*
X0688300Y0071400D03*
X0618300Y0071400D03*
X0548300Y0071400D03*
X0553300Y0166400D03*
X0623300Y0166400D03*
X0693300Y0166400D03*
X0763300Y0166400D03*
X0763300Y0256400D03*
X0693300Y0256400D03*
X0623300Y0256400D03*
X0553300Y0256400D03*
X0253300Y0256400D03*
X0183300Y0256400D03*
X0113300Y0256400D03*
X0043300Y0256400D03*
X0043300Y0161400D03*
X0113300Y0161400D03*
X0183300Y0161400D03*
X0258300Y0161400D03*
X0258300Y0071400D03*
X0183300Y0071400D03*
X0113300Y0071400D03*
X0043300Y0071400D03*
D15*
X0061000Y0084500D03*
X0131000Y0084500D03*
X0201000Y0084500D03*
X0276000Y0084500D03*
X0276000Y0174500D03*
X0201000Y0174500D03*
X0131000Y0174500D03*
X0061000Y0174500D03*
X0061000Y0269500D03*
X0131000Y0269500D03*
X0201000Y0269500D03*
X0271000Y0269500D03*
X0571000Y0269500D03*
X0641000Y0269500D03*
X0711000Y0269500D03*
X0781000Y0269500D03*
X0781000Y0179500D03*
X0711000Y0179500D03*
X0641000Y0179500D03*
X0571000Y0179500D03*
X0566000Y0084500D03*
X0636000Y0084500D03*
X0706000Y0084500D03*
X0776000Y0084500D03*
D16*
X0758750Y0082000D03*
X0793250Y0082000D03*
X0723250Y0082000D03*
X0688750Y0082000D03*
X0653250Y0082000D03*
X0618750Y0082000D03*
X0583250Y0082000D03*
X0548750Y0082000D03*
X0293250Y0082000D03*
X0258750Y0082000D03*
X0218250Y0082000D03*
X0183750Y0082000D03*
X0148250Y0082000D03*
X0113750Y0082000D03*
X0078250Y0082000D03*
X0043750Y0082000D03*
X0043750Y0172000D03*
X0078250Y0172000D03*
X0113750Y0172000D03*
X0148250Y0172000D03*
X0183750Y0172000D03*
X0218250Y0172000D03*
X0258750Y0172000D03*
X0293250Y0172000D03*
X0553750Y0177000D03*
X0588250Y0177000D03*
X0623750Y0177000D03*
X0658250Y0177000D03*
X0693750Y0177000D03*
X0728250Y0177000D03*
X0763750Y0177000D03*
X0798250Y0177000D03*
X0798250Y0267000D03*
X0763750Y0267000D03*
X0728250Y0267000D03*
X0693750Y0267000D03*
X0658250Y0267000D03*
X0623750Y0267000D03*
X0588250Y0267000D03*
X0553750Y0267000D03*
X0288250Y0267000D03*
X0253750Y0267000D03*
X0218250Y0267000D03*
X0183750Y0267000D03*
X0148250Y0267000D03*
X0113750Y0267000D03*
X0078250Y0267000D03*
X0043750Y0267000D03*
D17*
X0056000Y0267000D03*
X0066000Y0267000D03*
X0126000Y0267000D03*
X0136000Y0267000D03*
X0196000Y0267000D03*
X0206000Y0267000D03*
X0266000Y0267000D03*
X0276000Y0267000D03*
X0271000Y0172000D03*
X0281000Y0172000D03*
X0206000Y0172000D03*
X0196000Y0172000D03*
X0136000Y0172000D03*
X0126000Y0172000D03*
X0066000Y0172000D03*
X0056000Y0172000D03*
X0056000Y0082000D03*
X0066000Y0082000D03*
X0126000Y0082000D03*
X0136000Y0082000D03*
X0196000Y0082000D03*
X0206000Y0082000D03*
X0271000Y0082000D03*
X0281000Y0082000D03*
X0561000Y0082000D03*
X0571000Y0082000D03*
X0631000Y0082000D03*
X0641000Y0082000D03*
X0701000Y0082000D03*
X0711000Y0082000D03*
X0771000Y0082000D03*
X0781000Y0082000D03*
X0776000Y0177000D03*
X0786000Y0177000D03*
X0716000Y0177000D03*
X0706000Y0177000D03*
X0646000Y0177000D03*
X0636000Y0177000D03*
X0576000Y0177000D03*
X0566000Y0177000D03*
X0566000Y0267000D03*
X0576000Y0267000D03*
X0636000Y0267000D03*
X0646000Y0267000D03*
X0706000Y0267000D03*
X0716000Y0267000D03*
X0776000Y0267000D03*
X0786000Y0267000D03*
D18*
X0456000Y0263500D02*
X0456000Y0256000D01*
X0426000Y0256000D01*
X0426000Y0263500D01*
X0456000Y0263500D01*
X0456000Y0256000D02*
X0456000Y0238500D01*
X0426000Y0238500D01*
X0426000Y0256000D01*
X0416000Y0256000D02*
X0386000Y0256000D01*
X0386000Y0263500D01*
X0416000Y0263500D01*
X0416000Y0256000D01*
X0416000Y0238500D01*
X0386000Y0238500D01*
X0386000Y0256000D01*
D19*
X0396200Y0234803D02*
X0398602Y0231200D01*
X0399883Y0231200D02*
X0402285Y0233602D01*
X0402285Y0234203D01*
X0401685Y0234803D01*
X0400484Y0234803D01*
X0399883Y0234203D01*
X0398602Y0234803D02*
X0396200Y0231200D01*
X0399883Y0231200D02*
X0402285Y0231200D01*
X0403566Y0231801D02*
X0404167Y0231200D01*
X0405368Y0231200D01*
X0405968Y0231801D01*
X0405968Y0232401D01*
X0405368Y0233002D01*
X0404167Y0233002D01*
X0403566Y0233602D01*
X0403566Y0234203D01*
X0404167Y0234803D01*
X0405368Y0234803D01*
X0405968Y0234203D01*
X0405968Y0233602D01*
X0405368Y0233002D01*
X0404167Y0233002D02*
X0403566Y0232401D01*
X0403566Y0231801D01*
X0436200Y0231200D02*
X0438602Y0234803D01*
X0439883Y0234203D02*
X0440484Y0234803D01*
X0441685Y0234803D01*
X0442285Y0234203D01*
X0442285Y0233602D01*
X0439883Y0231200D01*
X0442285Y0231200D01*
X0443566Y0231801D02*
X0444167Y0231200D01*
X0445368Y0231200D01*
X0445968Y0231801D01*
X0445968Y0234203D01*
X0445368Y0234803D01*
X0444167Y0234803D01*
X0443566Y0234203D01*
X0443566Y0233602D01*
X0444167Y0233002D01*
X0445968Y0233002D01*
X0438602Y0231200D02*
X0436200Y0234803D01*
M02*
