%
M48
M72
T01C0.02362
T02C0.03200
T03C0.03543
T04C0.03937
T05C0.04000
T06C0.04700
T07C0.09055
T08C0.13780
%
T01
X301000Y231000
X336000Y231000
X366000Y231000
X366000Y196000
X346000Y186000
X346000Y181000
X346000Y176000
X326000Y176000
X326000Y181000
X326000Y186000
X346000Y161000
X326000Y156000
X481000Y146000
X501000Y156000
X501000Y161000
X501000Y166000
X501000Y171000
X521000Y166000
X496000Y211000
X486000Y221000
X491000Y251000
X486000Y256000
X476000Y251000
X486000Y276000
X411000Y96000
X406000Y96000
X391000Y66000
X266000Y36000
X236000Y36000
T02
X386000Y106000
X396000Y106000
X406000Y106000
X416000Y106000
X426000Y106000
X436000Y106000
X446000Y106000
X456000Y106000
X456000Y136000
X446000Y136000
X436000Y136000
X426000Y136000
X416000Y136000
X406000Y136000
X396000Y136000
X386000Y136000
X381000Y151000
X381000Y161000
X411000Y161000
X411000Y151000
X431000Y151000
X431000Y161000
X461000Y161000
X461000Y151000
X461000Y171000
X461000Y181000
X431000Y181000
X431000Y171000
X411000Y171000
X411000Y181000
X381000Y181000
X381000Y171000
X381000Y191000
X381000Y201000
X381000Y211000
X411000Y211000
X411000Y201000
X411000Y191000
X431000Y191000
X431000Y201000
X431000Y211000
X461000Y211000
X461000Y201000
X461000Y191000
X461000Y221000
X431000Y221000
X411000Y221000
X381000Y221000
T03
X47220Y46000
X57063Y46000
X64937Y46000
X74780Y46000
X117220Y46000
X127063Y46000
X134937Y46000
X144780Y46000
X187220Y46000
X197063Y46000
X204937Y46000
X214780Y46000
X262220Y46000
X272063Y46000
X279937Y46000
X289780Y46000
X289780Y136000
X279937Y136000
X272063Y136000
X262220Y136000
X214780Y136000
X204937Y136000
X197063Y136000
X187220Y136000
X144780Y136000
X134937Y136000
X127063Y136000
X117220Y136000
X74780Y136000
X64937Y136000
X57063Y136000
X47220Y136000
X47220Y231000
X57063Y231000
X64937Y231000
X74780Y231000
X117220Y231000
X127063Y231000
X134937Y231000
X144780Y231000
X187220Y231000
X197063Y231000
X204937Y231000
X214780Y231000
X257220Y231000
X267063Y231000
X274937Y231000
X284780Y231000
X557220Y231000
X567063Y231000
X574937Y231000
X584780Y231000
X627220Y231000
X637063Y231000
X644937Y231000
X654780Y231000
X697220Y231000
X707063Y231000
X714937Y231000
X724780Y231000
X767220Y231000
X777063Y231000
X784937Y231000
X794780Y231000
X794780Y141000
X784937Y141000
X777063Y141000
X767220Y141000
X724780Y141000
X714937Y141000
X707063Y141000
X697220Y141000
X654780Y141000
X644937Y141000
X637063Y141000
X627220Y141000
X584780Y141000
X574937Y141000
X567063Y141000
X557220Y141000
X562063Y46000
X569937Y46000
X579780Y46000
X552220Y46000
X622220Y46000
X632063Y46000
X639937Y46000
X649780Y46000
X692220Y46000
X702063Y46000
X709937Y46000
X719780Y46000
X762220Y46000
X772063Y46000
X779937Y46000
X789780Y46000
T04
X391000Y251000
X401000Y251000
X411000Y251000
X431000Y251000
X441000Y251000
X451000Y251000
T05
X51000Y261000
X61000Y261000
X71000Y261000
X121000Y261000
X131000Y261000
X141000Y261000
X191000Y261000
X201000Y261000
X211000Y261000
X261000Y261000
X271000Y261000
X281000Y261000
X276000Y166000
X266000Y166000
X286000Y166000
X211000Y166000
X201000Y166000
X191000Y166000
X141000Y166000
X131000Y166000
X121000Y166000
X71000Y166000
X61000Y166000
X51000Y166000
X51000Y76000
X61000Y76000
X71000Y76000
X121000Y76000
X131000Y76000
X141000Y76000
X191000Y76000
X201000Y76000
X211000Y76000
X266000Y76000
X276000Y76000
X286000Y76000
X556000Y76000
X566000Y76000
X576000Y76000
X626000Y76000
X636000Y76000
X646000Y76000
X696000Y76000
X706000Y76000
X716000Y76000
X766000Y76000
X776000Y76000
X786000Y76000
X791000Y171000
X781000Y171000
X771000Y171000
X721000Y171000
X711000Y171000
X701000Y171000
X651000Y171000
X641000Y171000
X631000Y171000
X581000Y171000
X571000Y171000
X561000Y171000
X561000Y261000
X571000Y261000
X581000Y261000
X631000Y261000
X641000Y261000
X651000Y261000
X701000Y261000
X711000Y261000
X721000Y261000
X771000Y261000
X781000Y261000
X791000Y261000
T06
X336157Y146000
X355843Y146000
X491157Y146000
X510843Y146000
X430843Y71000
X411157Y71000
T07
X35134Y241669
X86866Y241669
X105134Y241669
X156866Y241669
X175134Y241669
X226866Y241669
X245134Y241669
X296866Y241669
X545134Y241669
X596866Y241669
X615134Y241669
X666866Y241669
X685134Y241669
X736866Y241669
X755134Y241669
X806866Y241669
X806866Y151669
X755134Y151669
X736866Y151669
X685134Y151669
X666866Y151669
X615134Y151669
X596866Y151669
X545134Y151669
X301866Y146669
X250134Y146669
X226866Y146669
X175134Y146669
X156866Y146669
X105134Y146669
X86866Y146669
X35134Y146669
X35134Y56669
X86866Y56669
X105134Y56669
X156866Y56669
X175134Y56669
X226866Y56669
X250134Y56669
X301866Y56669
X540134Y56669
X591866Y56669
X610134Y56669
X661866Y56669
X680134Y56669
X731866Y56669
X750134Y56669
X801866Y56669
T08
X12811Y12811
X12811Y280528
X829740Y280528
X829740Y12811
M30
